<mxfile host="app.diagrams.net" modified="2024-01-25T19:24:39.068Z" agent="Mozilla/5.0 (X11; Linux x86_64; rv:122.0) Gecko/20100101 Firefox/122.0" etag="JXOnI0kkmDRoEnQJiP-9" version="23.0.1" type="device">
  <diagram name="Page-1" id="AUuzfWQT1YeJ6ZJTm1LT">
    <mxGraphModel dx="2338" dy="768" grid="1" gridSize="10" guides="1" tooltips="1" connect="1" arrows="1" fold="1" page="1" pageScale="1" pageWidth="850" pageHeight="1100" background="none" math="0" shadow="0">
      <root>
        <mxCell id="0" />
        <mxCell id="1" parent="0" />
        <mxCell id="uiJZJZdM5Mdqh4rs3s2e-37" value="" style="rounded=0;whiteSpace=wrap;html=1;labelBackgroundColor=none;fontColor=none;noLabel=1;fillColor=none;movable=1;resizable=1;rotatable=1;deletable=1;editable=1;locked=0;connectable=1;strokeColor=#000000;" parent="1" vertex="1">
          <mxGeometry x="120" y="360" width="600" height="160" as="geometry" />
        </mxCell>
        <mxCell id="uiJZJZdM5Mdqh4rs3s2e-35" value="&lt;div style=&quot;font-size: 11px;&quot;&gt;Torrent&lt;/div&gt;&lt;div style=&quot;font-size: 11px;&quot;&gt;traffic&lt;br style=&quot;font-size: 11px;&quot;&gt;&lt;/div&gt;" style="text;html=1;align=center;verticalAlign=middle;resizable=0;points=[];autosize=1;strokeColor=none;fillColor=none;fontSize=11;fontColor=default;fontStyle=1" parent="1" vertex="1">
          <mxGeometry x="490" y="403.5" width="60" height="40" as="geometry" />
        </mxCell>
        <mxCell id="uiJZJZdM5Mdqh4rs3s2e-5" value="&lt;font&gt;rTorrent&lt;/font&gt;" style="rounded=0;whiteSpace=wrap;html=1;fillColor=none;strokeColor=default;fontColor=default;fontStyle=1" parent="1" vertex="1">
          <mxGeometry x="360" y="400" width="120" height="80" as="geometry" />
        </mxCell>
        <mxCell id="uiJZJZdM5Mdqh4rs3s2e-8" value="&lt;div&gt;Flood&lt;/div&gt;&lt;div&gt;Web UI&lt;br&gt;&lt;/div&gt;" style="rounded=0;whiteSpace=wrap;html=1;fillColor=none;fontColor=default;strokeColor=default;fontStyle=1" parent="1" vertex="1">
          <mxGeometry x="160" y="400" width="120" height="80" as="geometry" />
        </mxCell>
        <mxCell id="uiJZJZdM5Mdqh4rs3s2e-28" style="edgeStyle=orthogonalEdgeStyle;rounded=0;orthogonalLoop=1;jettySize=auto;html=1;startArrow=classic;startFill=1;strokeColor=default;" parent="1" source="uiJZJZdM5Mdqh4rs3s2e-1" target="uiJZJZdM5Mdqh4rs3s2e-27" edge="1">
          <mxGeometry relative="1" as="geometry" />
        </mxCell>
        <mxCell id="uiJZJZdM5Mdqh4rs3s2e-1" value="&lt;div&gt;WireGuard&lt;/div&gt;&lt;div&gt;VPN Router&lt;br&gt;&lt;/div&gt;" style="rounded=0;whiteSpace=wrap;html=1;fillColor=none;fontColor=default;strokeColor=default;fontStyle=1" parent="1" vertex="1">
          <mxGeometry x="560" y="400" width="120" height="80" as="geometry" />
        </mxCell>
        <mxCell id="uiJZJZdM5Mdqh4rs3s2e-19" style="edgeStyle=orthogonalEdgeStyle;rounded=0;orthogonalLoop=1;jettySize=auto;html=1;entryX=0;entryY=0.5;entryDx=0;entryDy=0;endArrow=classic;endFill=1;startArrow=classic;startFill=1;strokeColor=default;" parent="1" source="uiJZJZdM5Mdqh4rs3s2e-5" target="uiJZJZdM5Mdqh4rs3s2e-1" edge="1">
          <mxGeometry relative="1" as="geometry" />
        </mxCell>
        <mxCell id="uiJZJZdM5Mdqh4rs3s2e-18" style="edgeStyle=orthogonalEdgeStyle;rounded=0;orthogonalLoop=1;jettySize=auto;html=1;entryX=0;entryY=0.5;entryDx=0;entryDy=0;startArrow=classic;startFill=1;fontColor=default;strokeColor=default;" parent="1" source="uiJZJZdM5Mdqh4rs3s2e-8" target="uiJZJZdM5Mdqh4rs3s2e-5" edge="1">
          <mxGeometry relative="1" as="geometry" />
        </mxCell>
        <mxCell id="uiJZJZdM5Mdqh4rs3s2e-22" value="Docker network example 172.20.0.0/29" style="text;html=1;align=center;verticalAlign=middle;resizable=0;points=[];autosize=1;strokeColor=none;fillColor=none;fontColor=default;" parent="1" vertex="1">
          <mxGeometry x="115" y="353" width="210" height="30" as="geometry" />
        </mxCell>
        <mxCell id="uiJZJZdM5Mdqh4rs3s2e-23" value="172.20.0.2" style="text;html=1;align=center;verticalAlign=middle;resizable=0;points=[];autosize=1;strokeColor=none;fillColor=none;fontColor=#000000;" parent="1" vertex="1">
          <mxGeometry x="585" y="480" width="70" height="30" as="geometry" />
        </mxCell>
        <mxCell id="uiJZJZdM5Mdqh4rs3s2e-24" value="172.20.0.3" style="text;html=1;align=center;verticalAlign=middle;resizable=0;points=[];autosize=1;strokeColor=none;fillColor=none;fontColor=default;" parent="1" vertex="1">
          <mxGeometry x="385" y="479" width="70" height="30" as="geometry" />
        </mxCell>
        <mxCell id="uiJZJZdM5Mdqh4rs3s2e-25" value="&lt;div&gt;172.20.0.4&lt;/div&gt;" style="text;html=1;align=center;verticalAlign=middle;resizable=0;points=[];autosize=1;strokeColor=none;fillColor=none;fontColor=default;" parent="1" vertex="1">
          <mxGeometry x="185" y="480" width="70" height="30" as="geometry" />
        </mxCell>
        <mxCell id="uiJZJZdM5Mdqh4rs3s2e-27" value="The internet" style="sketch=0;outlineConnect=0;fontColor=default;gradientColor=none;fillColor=#005073;strokeColor=none;dashed=0;verticalLabelPosition=bottom;verticalAlign=top;align=center;html=1;fontSize=12;fontStyle=1;aspect=fixed;pointerEvents=1;shape=mxgraph.aws4.globe;" parent="1" vertex="1">
          <mxGeometry x="810" y="401" width="78" height="78" as="geometry" />
        </mxCell>
        <mxCell id="uiJZJZdM5Mdqh4rs3s2e-31" value="" style="edgeStyle=orthogonalEdgeStyle;rounded=0;orthogonalLoop=1;jettySize=auto;html=1;exitX=0.98;exitY=0.51;exitDx=0;exitDy=0;exitPerimeter=0;startArrow=classic;startFill=1;strokeColor=default;" parent="1" source="uiJZJZdM5Mdqh4rs3s2e-30" target="uiJZJZdM5Mdqh4rs3s2e-8" edge="1">
          <mxGeometry relative="1" as="geometry" />
        </mxCell>
        <mxCell id="uiJZJZdM5Mdqh4rs3s2e-32" value="HTTP" style="edgeLabel;html=1;align=center;verticalAlign=middle;resizable=0;points=[];fontSize=11;labelBackgroundColor=none;fontColor=default;fontStyle=1" parent="uiJZJZdM5Mdqh4rs3s2e-31" vertex="1" connectable="0">
          <mxGeometry x="-0.1713" y="-1" relative="1" as="geometry">
            <mxPoint x="2" y="-10" as="offset" />
          </mxGeometry>
        </mxCell>
        <mxCell id="uiJZJZdM5Mdqh4rs3s2e-30" value="Client" style="points=[[0.35,0,0],[0.98,0.51,0],[1,0.71,0],[0.67,1,0],[0,0.795,0],[0,0.65,0]];verticalLabelPosition=bottom;sketch=0;html=1;verticalAlign=top;aspect=fixed;align=center;pointerEvents=1;shape=mxgraph.cisco19.user;fillColor=#005073;strokeColor=none;fontStyle=1" parent="1" vertex="1">
          <mxGeometry x="-60" y="383" width="110" height="110" as="geometry" />
        </mxCell>
        <mxCell id="uiJZJZdM5Mdqh4rs3s2e-34" value="&lt;font style=&quot;font-size: 11px;&quot;&gt;XMLRPC&lt;/font&gt;" style="text;html=1;align=center;verticalAlign=middle;resizable=0;points=[];autosize=1;strokeColor=none;fillColor=none;fontSize=11;fontColor=default;fontStyle=1" parent="1" vertex="1">
          <mxGeometry x="285" y="415" width="70" height="30" as="geometry" />
        </mxCell>
        <mxCell id="uiJZJZdM5Mdqh4rs3s2e-36" value="&lt;div style=&quot;font-size: 11px;&quot;&gt;VPN encrypted&lt;/div&gt;&lt;div style=&quot;font-size: 11px;&quot;&gt;Torrent traffic&lt;br style=&quot;font-size: 11px;&quot;&gt;&lt;/div&gt;" style="text;html=1;align=center;verticalAlign=middle;resizable=0;points=[];autosize=1;strokeColor=none;fillColor=none;fontSize=11;fontColor=default;fontStyle=1" parent="1" vertex="1">
          <mxGeometry x="710" y="403" width="100" height="40" as="geometry" />
        </mxCell>
        <mxCell id="uiJZJZdM5Mdqh4rs3s2e-41" value="" style="shape=image;verticalLabelPosition=bottom;labelBackgroundColor=default;verticalAlign=top;aspect=fixed;imageAspect=0;image=data:image/png,iVBORw0KGgoAAAANSUhEUgAAAgAAAAIACAYAAAD0eNT6AAAABGdBTUEAALGPC/xhBQAAACBjSFJNAAB6JgAAgIQAAPoAAACA6AAAdTAAAOpgAAA6mAAAF3CculE8AAAAB3RJTUUH5QEdDgwLJLc97QAAAAZiS0dEAAAAAAAA+UO7fwAAYjdJREFUeNrsnXdUVteX97PmXfO+a80fM7NmRiPYW+y99941iYnRxNhN78UkphqjUZoi0ptIUVEBBSuoFFFUVETpvffeO/u9+5hkEnlQkPbce797rc8ko/nB89xzzt3fc84uL7ygMjP+z/98wei/uv2rfjed/9DrpvOi3os6fSQGS0yW2KT3ou7v+t11zfS663pK/3/w30iS/q5RggAAAGgljY/f1X97d0vvcvFOl97tj9/x4l0/WLz7JR/AvoB9AvsGmDKd/r/od9f5L2mwR0iTYYn07x9KE+Kw9O9npUkQIpGHhQMAAGqB3/nSu1/yAewL2Cewb2Afwb6CfQY8p7yd/v+VBnq4NKCrpYH9Vvp3W+mf/tI/czD5AQAAPEHOHz7CVvgM9h2SD2FfAo8qD6f/fwz+58WBet11tkoD5ywRJJEsUYnJDQAAoIVU/uE7goQvkXwK+xb2MfC0WmjSIC2VVJu99M8EiXyJekxiAAAAbaT+D5+S8IePWQqP24Wm363Hv0iKrLt+9x7TpX8aSYOSjgA9AAAAnRJoyD5H8j1/+KDu7JPgmTvH+evovajzmvTQPaSBKMdkBAAA0EWUP/ZFOq+xb4KH7qAofoNuOgMk1bVNgu/2izDxAAAAaAmST9JxktjIvgpZBO1kRv/dvZt+d91PJMfv88c9DI76AQAAaBsNEtnsq9hnse+CB29TYJ/OculhBv+x44fjBwAAIINiRJLPEr5LZzk8eSuq9Ol36/Fvet10pksP7zTS9wAAAMg6nZB9meTT2Leh2uDTdvzduVKfzs4/UvkweQAAACiBBOHbJB8HT/+EGXTr9h+SSlonPaRrEjWYLAAAABRGjfBxkq9jnwfP//ief6CEifRg0jFBAAAAKJz0xz5PZ6CqU/v0u704WXoY3rjrBwAAoKrYAMn3sQ9UXcqgpHz+Xb97j3fQhQ8AAIB60cn7wxf+uyp2/XrddV6SvqzhHzmTmAAAAABUXj9A8omSb1TsaYBBt27/T79bj3l63XU9pS9chUEHAAAABFXCN3bTmbX/P3v8q9Kc/7/qd++xUvqC9xHlDwAAAGjIEuiuGyxtlJezz1RQA58X50pfLF4P1fwAAACA5uBOg/HsM2Xv+Pd36/Fv+7vrvCN9qToMLAAAANAi6th3sg+V566/u+7/6HXX+Uz6Ioj0BwAAAFpHHvtQ9qXy2vkL56/7kx53RsIgAgAAAM8Ddxf8ab9cRMAfx/6fwfkDAAAAbRcB7FNlcR3wx50/jv0BAACAdroOYN+q3al+HO2PgD8AAACg3QMD2cdqXYqgKPLzOM8/HoMEAAAAdAAiRbDHcq0pFvS4qY+o8Hcfef4AAABAh9YJCOaKgVpRNljU9n9c3hcV/gAAAICOpUb4XMn3dm2u/4s6//5HYx/U9gcAAAA6hyr2vfpd1UVQHP2LNobo6gcAAAB0Mg3sg7vkKkC/24uTuZcxBgEAAADoCnTy2Bd39tH/QOmXe+PhAwAAAF2KN/vkzkr5+w9JdZhIv7QSDx4AAADoUirZJ7Nv7oSof9110i9Mx0MHAAAAtIJ09s0dGfT3gn53nRHSL/LFwwYAAAC0Cl/20eyr23/n363Hv+l119mJfH8AAABAG+sDSD66I5oG7e+mM136BQl4yAAAAIBWksC+uiPu/k/j4QIAAABajOSr2zvtbwWi/gEAAADtzwpgn90+aX//3b2baD6AhwoAAADI4RQgmH13m8v9Sj/oU+kHFuGhAgAAALKgiH13m8oE63XTGSD9EB89tPkFAAAA5EKj8N2SD29L4N826Qfl42ECAAAAsiJH70Wdjc+Z9tdDRxIALtj9AwAAALKjQRIATuzLW+v8/0X6H76Gu38AAABAxrEAki9nn96Ko3+d7hIeeHgAAACAnDMCJF8u+fSW5/1378FV/8rx8AAAAABZU84+vTUnAAfw0AAAAAAloLO3NdH/aPcLAAAAKOIaQDelhcf/ussQ+Q8AAAAopy4A+/ZnVf77P/u769rjYQGgDPR1epHxoCFkMnSEwGz0OLKZPlMjtrPmkNOyFXRk3oImf2c+ZvxfP+NAv4Gk16Mnni8AMoJ9O/v45o/+/+fFgXpo+QuA1jt105GjyXHJMnJZ9Yrg5No3yfODjwReEn57fhdc369H92zs6IGTsyDCzZ2SAq5rJDXoFhXEJ1BmyIMmfxd55uxfP+O2qRn5791HFz77gjy2vkPHX32N7OfOJ8sJk8mwdz+MEQDaSQL7+KcF/22V/qMCPCgAtFsAmAwZLnbsHlu3063DppKTDqDSjEwqz80VdIZVFRZRSXoG5UVFUXpwMCX5B1C4mxvdPHiIzn30CR1dtIQM+/THmAGgHRSwj2/u+P//Sv+Bs0Q9HhQA8uBA/0FkPm4C2c2aK04BAvUMKObCRaooKKAuscZGqquspIq8PCpKSqLsR2EU5nqKfH/dTc4rXyajvgMwbgB0DezbndnXawr+GyH9ZRAeEgAypUdPMtDtTYa9+krCYCDZzpxNl7/5lkKPHae8mBhxMlBdWkr1NbXCUXeaJmhooIa6Oun31lBZVhZFuHuQ14cfk8X4SSKmwIhPCRBTAEBnEMS+vunx/4s6q6W/TMYDAkCZOC5ZTpe+/obu2R2hhGu+lP3wEZVlZ0s79qouOSyoKiqiuMve5PfbXnJ9Y50QBCxgMFYAdBjJ7OufPP7/F73uut9Kf1mJBwRA12Ag7dzNxowjy4mTyXTkmA6/OuBof96JB+zXozDXk5QceIOKkpO7RAxU5OdT9LnzdO3nXXT81dfJePBQzAkA2p9K9vXs8/8SAAbddP5b+gtbPBwAulAA9OxD1lNnSDviPRRz/gKFnTxFIQ6OIuLe68OPRLS91eRp7R5p//egwhNr1tKlr76mO+YWlOTnTyXp6dRQX99pQqCuqoryoqIp0uMsXfnxZ/E8MDcAaFds2ef//fif7/8D8GAA6PpTAD4K99u9h2orq4TzrSkrE/f3xamplB8bS5n3Qyja65wQCu6bt4oTg3YVBD16itoB/DnsZs+lU2+9TbdMTCnB148qCws7LW6gqriYcqOi6J6dvTitYIGEOQJAmwlgn//n8T+X/l0i/WEOHgwAWiIEdHsL5xvu5k6VBQVNduGNjY1/BNbVil1zeU4uJUo79tvSzp1T8FgUmI0e+7hwT/9BpN+Wu3UOLpScL588cBS//dwF5LPzB4q9dJmKkpKpvrqmY8UAi6DSMkq4cpXcNm6mw8NHiUBHzBMAnosc9vns+18w+K9u/6rXXedDPBQAtA+OkHdd+6aInOeAvZZafW0t5cfEUsLVa2L3zqLAdc06Orp4KVlPmyFiDNrjKoELAKXdCe7UeIGUwBt06atvyHbmHKQVAvA8SD6fff8L+7vp/KekBkzxUADQXg4OGExekhOPveQtdvvPY3yVkBcdLQr2cG7+zQPGdPXnXeT5/od0av0Gcln5sjhqtxg3UZT+5ZOD5j6P6aixovKf+5ZtlPXwUacHDdZWVIrKhdf365PTspXi2gLzBICWCgBdU/b9fP//ovQHnngoAGg/fLR/Zvu79PDYiXa5j+drBBYUhYlJlBMeTunBdynxmp84OYg660mPXE9qJN7niggSzAkLp5rycuoqq6uuFumMNw8ak92sOZgjALQMT/b9L+x/UaeP9C8heCAAyAMRtT98JB1fvYbC3T1EsKDarbayUhIwEXTzwEEyHzsB8wSAp6ITwr6fTwAGS+ThgQAgM3r0JMPefUW3Pm7Qkx8bJyr9NXZilT9ts4a6elFtkK82TEeNQbAgAJoFQB77fhYAk/EwAJA/HNh38cuvKf7KVZEyyIGAaraM+/fp4hdfiZgGVBgEoIkImPyCfnedzXgQACgHrqLntmkr3TYzp5QbN8WpgFqtuqSEor3O0/nPvqDDw0difgDw51Wi5Pu5BsA+PAwAlJlCyLUEOAXw/hEHKs/JUa0QKM/NE0GNDvMXYW4A8DgTYN8L+7vrmuNhAKDsoMFDQ4aTw8IldOmrHZQUcF1Ez6vNGusbKOtBKB175TXMC6B62PezAPDCwwBAPWKATwY4cNBvz17KCn0oGvFwNUFVBA9K37E4NY3Of/IZSgsDtccAnOA0wGA8CADUCUfJO69YRTcPHqJEXz8qTExUxekAnwScXPcWsgSAek8AJN8PAQAAEPA1ATvFG0YHKeXGjU7tAtgVln4nmI4uWirSKTH+AAIAAKB6LCdMopgLF0UTHqXXDOBTD86awLgDVQoAvRd1kvAwAACM3ay5lHHvvogJUEtg4IOjjmgqBNQYA5AkCQDdRjwIANQLF8kxHzOOAvbtp/LcXBEopybjJkn83Q/0G4j5ANRE4wt4CAB0sIPt2YcODR5KFhMmke3M2eS4dMU/4PQ866nTBdxhj/vdd4YzMujZm6wmTSWvDz6i1JtB4khcrVZZUEC+v/4mui5izgK1AAEAQAdgPHgIHZm3kM5sf4/89/5O92ztxb06t7AtTEr+B6JFr5+/IPbSJXrocoxumZjS1Z9+Fq16Xd9YR0fmLySL8ZPa57MNGiIi/6/88BPFe/t0aTc/bTLuiHh5x7cQAQACAADQ+hx73sFf+nIHhZ08JVrrlmVlP/fOmqPwK3LzRJOf9LvcpteXQiVxcNvUXDgqj63byX7uArKZPovMRo9r9nMdHjaSbKbNFG2EA37fTxFuHpT9KIxqKyrg9Z+wkrQ08pee0cGBEAEAAgAA0AJMR40Vtfc5v7wyv6DjIugbG6m+uoYqCwpF17uCuDjKj4mhnIgIEbzHxEm7+ofHjlPKzSDx/2eHhVFedIz472vKyqmxoQGe/ilWVVwsibdg8t/zOx2ZtwAFgwAEAACg6d0+957nu2Ous99QV6clxe4aHwuQRjjzNqUJ1tZSbWUlZYaE0PV9emQ/Zx6ZDBtJB/oPFKc9zztvrKfOoPgrV+ieja24ijEZOgIiA0AAACAXuILcyXXrKePuPcUXzIE9Nm6vnHYnmO6YmZPHtnfIcclyspo8TdQRaI0D5yubvKjoxz+zpkYEYHJpYsuJk0kfRYkABAAA2g3vAs++855oNVuRl6+61DltNd6x54SFU8yFS5To50fVJaUddjrAZZMTrl6ju9JO3n/vPuHEOWCTd/VcYdBy4hRxQvR3OEbEfdNWKkpO+efnrqiguMuX6cy2d5GOCCAAAJBD0J/F+Ink+d4HFOXpJe7mYV137VEQn0B+u/cIB2w+bqLYad88aCyJgJJOKShUVVREBXHxIsAy836IqDKYcOXqP+A/479vrtBSSVo6BRmbiPRMrDEAAQCADISA2ZhxIio/3ueqOCqGda5V5OWR69o3yeiJ3TPf2QcdMhHFfmRTmKi8XARyspDR1+2NNQYgAACQgxDgkrJOy1dS5FlPEanfiKuBTrHoCxeaDczjO/q71rZUVymf8sacqVGUnEyn396IAEEAAQCA3PDY+g4l+QeIDAGk3nWscWc/jqZ/UpCZj5tAZ7a9QzEXL8lKAPxpnLp5av3bolwz1hSAAABARnBZ3wuffUGxkgPqjLtotRofmwcdOkxWk6c+dvxjJ9C5jz6hKM9zVFlYKOvvVpiQQG4bNuEkAEAAACDLCoGTptClr3ZQVuhDeOsOMo74T/Tzp0fHXSn+ytXHjY2UEODY0EC5EZF0WhIBWE8AAgAAORYO6tVXNAMKP+2OjAFYK7MM6kUfCW4chbUEIAAAkCkclObz/Q9UmpmJIEFYq04CuMSz6cgxWEcAAgAAOZcR5ja8xSmpKCIEa7Fx5UC+SkI8AIAAAEDGcMpgoIERuvLBWmXcHZK7O2INAQgAAGQMFxDijn0wWGvshtEBrB8AAQCA3PH57nt4NFjrUgMTE5vUPQAAAgAAuV0F9BtIVUXF8GqwFlttRSV57/we6wdAAAAg6zoBur0p9rI3vBqsxcYtqCPc3JstfwwABAAAMikUFPD7fng1WKss4+49UWkSawhAAAAgY7iPPEx7rDQjkwoSErQa7m9gOWEy1g+AAABAztjNnodeAVpgOZGR5P3tTnJYuJjs58zXaqynTifD3v2wfgAEAAByxmrKNMqLjoYH7iLjAjsPnJxFEyGDnui8ByAAAACdWA+AG9jAusYqCgroup4+HR4xmvR69MScBBAAAIDOwWTYSHrkehKeuAutqriY7tnYkuXEKRABAAIAANA5HBz4Et06bAYv3NX59eXlFHP+Ip3Z/o4ot/t3XFa+TG4bNz0Xp956+6+fw5H7SN8DEAAAAIFhn/7k++tv8MBaYNx6lzs15kZG/YPChEQqSU9/LopT0/76OVmhDyn9TjDF+1ylOxZWdPWnX+j02xvJbvZcCAMAAQCAGjn30SfwvmoSGo2N1FBbR/XV1VRbXkEPHJ3ISBKCWAsAAgAAlXFm+7tUJzkDmPqsODWVnJavROwBgAAAQI2ceGOdOC6Gqctqysvp+n59OjhgMNYBgAAAQG0Y6PYmtw2bqSgpCR5RTdcADQ0Uf+Ua2UyfiXUAIAAAUE3q39AR5L5pC92xsKS0O8GUHxtLdVVV8IoqspK0dHH1ww2hsCYABAAASqRHTxHgxSlg5z7+VBT9qcjNo9qKCmqorYUnVKGx2AsyOUwGPftgfQAIAACUhr7k+LnIj8vKVyhQ3xBH/LC/Ug1jL14mo74DsE4ABAAASizu4755Kz1wcqGStDTppd8Az9dJVl1cQqVZWf+AI+0zQx5QRkhIm8l6+IiKpTHln1tZUNDqz8d1AKwmT8U6ARAAACiJA/0G0sk319PDY8dFARhY24yvSf5sgZsUcJ3ifK5Q9LnzdN/+CAVb2Qiu/bKLLn/z3V94vv8RuW3a8g9OvbWBji5ZTkcXL2sznLJ3av0G8XPPvvs+Xf15Fz087irKCT/NGurqKe32HTqxZi2K/gAIAAAUc9wvvdC5mts9W3sqTEyihvp6eO9WWEF8AiX6+lGwpTX57tpNXh9+TMdeeY2cVqwi+3kLBLxrtpgwWXTtOzRkOBkPHiow6OIgOv793EiIq/pxZ8Hmjv3jvH0kAbGUDHr1xZoBEAAAKOGe/9BLQ6Vd6K/imBlBfS23eulZRZ7xJJsZs4Qj51x4DpZkBynHyHhD6XM7r3yFUm/fpsrCQqouKRGnAlwC+OJXO8hk2AgxX7BuAAQAAHI/7u8/iJylHWoCWvk+Vw58zIWLirwLN+zdj2xnzBZH/Y5LliPND0AAAKCkXb/FuIli189NYriuO6x1Vp6TI1IiMZ8AgAAAQDY5/Q4LFlHYyVPimBf2fJZx7x7ZTJ+F+QQABAAA8oCP/LMehIoubrDnt3ifK2TYG8FwAEAAAKDlcMW20+s3ikA/wpF/my35eqCojIi5BQAEAABaC1dsO7P9PSpEJb92s9LMLPL64CNExQMAAQCA9kZ0e2zdTnnR0fDa7VwO99EJV5E/j3kGAAQAANoX8LdwCWWFPoTH7gArSU+n029vRFU8ACAAANC+wi7R5y6InHVYx9QCCDt1GrEAAEAAAKB9JwBmo8eS24ZNFLBPjyI9PSnr0SOqyM+nqqIiqiouoZryclGvvrayUlS2Y1AGuHXVAL2/2YlYAAAgAACQR0aA5aSpdGT+IhEfcP6zL8j7u+/pro2t4NHJUyLKPeVmEKXduUPZkmjICQun/NhYkUVQkpEhusixaEARIaLS9AyynDgFcwsACAAAlAN3B7SSxIL1tJnkuHQ5nXp7oxANl7/5lq7rG9A9O3uK9jpHiX7+lBcdI4oLqfHKga8CTEeOwZwBAAIAAPXAd+DWU2fQ8dWv09n3PhDtbcMlh5gXE0N1VVWqEAC15eUUqG8oBBPmBAAQAACo84pBtzeZjhojWuC6b95KQYdMlF+DoLGRSlLT6NxHn4grFswDACAAAFA1nCLHLXIPDR1OXh98TAm+vlRdWkoNdXUK1ACSCEhLI8/3PiCDXhABAEAAAAD+EYDotGwFPTx2XHKW6Yo8DMiJiBCtdPWQGQAABAAA4IkaBX9UKOTgQSVabmQkubz8KsYaAAgAAMCT2M6cTbGXLis2LCDzQSidffd9XAcAAAEAAGBMR42lqz/vosz7IaKmvpIrBRbEJ4imQQgMBAACAADVBgOaDB1BZ7a/S+nBwY/TA1VQRIgDA6sKi8jvtz10aMhwzAUAIAAAUI/jNx0xWpQjTrsTrN6SwdXVIvCRKzBiXgAAAQCAch1/j55kOnI0eWzZRo+On6DKgkI0DpAs7vJlOv7q6yIIEvMEAAgAABSFUd8B5Pne+xTh5i5a5qIb4d+uBOobKDciki7v+JYOvTQM8wUACAAAlJDa15dc31hHUZ5eVJqZKZwdTHNcQHluLj1yPUnWU6Zh7gAAAQCAPDnQf5DoAxB74eLjZkBoJ9wi42qI+bFxkmh6U1RLROEgACAAAJAFBr36kt2sufTA0YmqS0rg0Z+3kVBFBd0xtyC72XPJUHqmmFsAQAAAoL3OX7c3OS1bKQr5NNTWtcjJlWVni5gArpKXFfpQIpSSrwdS3GVvQcLVa5RxP4Ty4+JU00XwryyB2lpKDbolagYcGoLYAAAgAADQYgFgP2e+6PZ3+Zvv6MoPP9H1/Xp019qG7tnaSztaS/Fnf3Lhiy/JY9t2ctu4mVxeWU2OS1cIbKbPIvOxEwSWE6fQ0cVLRR19753fi1iC6pJSVQkB7o/w6NgJ6dnOwzwDAAIAALkEAfYj48FDRXT7wYEvtS2NUBIYLAp8dv4g4grUlSlQL6oknv/0c6QLAgABAIB6Mwv4RKA8J1dd6YSNjVRdXCJOQRwWLkEpYQAgAABQJ0fmL6KkgOtUV6mu2IA/rwX4JMR83ATMBQAgAABQF/o6Pclu1hwKdT5GVUXFqiwlzKcBx19bQwf6D8ScABAAeAgAqAuOC/D99Tcqy85RXwGhhgbKj40VwZbmY8djPgAIAACA+goPnX57E5VkZKiybgDXXIg+d56OLFiE4kEAAgAAoLYrgV7ktGyFiAvgHHr1VRGsp9L0DDr38aei9wKEAIAAAACoCtNRY+mOhSVV5OeLGvtqs7o/2gzbzpyNTAEAAQAAUBfGg4bQ5W++FV321Gh8ApLk508n31z/uKcA5gSAAAAAqAXe/XKEfOrtOyptM1wvBNCFz78QVRoxJwAEAABAZfUCFtKj466qjAtgK8vKIp/vf8BcABAAAACV0aOnKEV89aefqTQjU5VxARwPcUX6/rgOABAAAABVcmr9BkoPviuOx9XXYriSQhwcyWrSFJExgfkAIAAAAKrCdsZsUUGvpqxchamCdRTtdY6cl6+CCAAQAAAA9WE2ZjwFGhhRaWaWKkVAxr375LZhE+YCgAAAAKgzVdDrw48pJzxCXV0F/7D82Di6gPbCAAIAAKDWVMEj8xZQ3GVv9WUJNDZSeU4O+f22hw4OHIzKgQACAACgPrib3m1zC6rIy1PflYAkfEIcjpLlxMkQAQACAACgRhEwiC7v+JZyI6NUdyVQX1NL4afdyGb6LMwFAAEAAFAffB9+Ys1aSvD1k5xijepOA2IuXIQIABAAAAB1wulx1lOn0wMnZ3FPrq7rgDqKvXiJ7OfOx1wAEAAAgBY4zR49yaBXX1Fpjo/SOajMZNhIcliwmDzffV8EmgX8vo9uHjSmsFOnKUZyMs0R4e4h/tsr3/9Abhs2k+uadSJi/+DAl+hAv4Fily663HXwfTV/B99du6mqqEhV1QMfpwneo2Ovvo5aAQACAADwxFG55OxNhgwniwmTyX7eAjr99kYK1DeksJOnKON+CJWkpbdvwHpDA5Vn51BSwHV64OhE137eRSdef4PsZs0hs9FjhejQ7wBBwN/TfdMW8Z3UdiWQGxlJrm+sgwgAEAAA4H68r+Rw54pyuuyAQ444UKKvLxWnpnXZcXVedAxFnjlLN4wO0rmPPyXnFavo8PBR7ZsqqNtb/Fz+PbWVlaoTAcdefQ3zH0AAAKC6yPh+A8l+7gLJuX5Gd21sKSXwBpWkp2tlLf2a8nLKDgsX0ey+v/4mdq+HXhrabs/CcuIUumNuQXVV1aoSAVw18OjipVgPAAIAADVweMRo8vnue3EnnyM5VS4YI5fUOL6vrykro8KEREoNuiXEgM30me3yXEyGDie/3/ZSeW6uimIC6inO2wfZAQACAAAlwkF1xoOH0sm1b4odNN/h845aCfnw3AWvOC1NHOGfeutt8T31dXu36VTEY8s2yo1ST70ADgx8nCI4E8WCAAQAAEqAo+vt58yngN/3U054uEpq4MfSxS++ItuZs0Xw4PM+O8elyynh6jXVBAc+rhjoSBbjJkIEAAgAAOSasmc6YrTYDd8xs6DChATVFbzhGAYOcAvYp0fOK19+XAv/OZ4l74hDnVxUIwK4YmCwhRUdHDAIawlAAAAgt6C+s++8R+GnTotjfjV2wfunQ6sR3QCDrayfu/jNoSHD6Z6tvagXoAarKi6mS1/twHoCEAAAyCWFj6Pi+R78cRS/uh1/EyFQXU1ZD0Lp+n59Mh055jmCJkfRtV2/qiY4sDAxUZRMxtoCEAAAaPGO/9jLr1K01znR6a5BC9P3tCh9gOoqKykr9CGd//RzESzYmrturoLo+cFHVJCQqPjKgfz9OMPCetpMrDMAAQCA9uXvz6fw0+5idwtrvXGRI6flK+nggNbFBxxfvYbS795VfB8BjqMIcz0pTj+w5gAEAABakM7H1fr8du+hgrh4ePE2WnFKCgXs2y8yBkT/gRaOw5H5iyjt1m2RQ6/oeICiYrr60y9CcGL9AQgAALowpe/il19Rkn+AyH2HtVcdgQpK9PUj983bxDF/S8fDYeFiivL0Ejn0SraC+HhRKlkfqYEAAgCAzsd6yjRRwEdOFftkddwtPdOi5BTRzbClKXDcRMd25hxJBJxT/ElA9LnzZNR3ANYigAAAoFOQdlzcGtfzvQ9ELr/Sd5raYHVVVRTv4yPy/w1aUE2QRYDpyNF0z86eassrlJtFUVtL3t98J81JrEsAAQBAh8K7La5Ex+13+Yga1smxAampoppgSzMFjPr2p9tm5ooeq+KUVLKaPA3rE0AAANCRd/1XfvyJ8qKj4Ym70MpzcunmgYNkOXFyi9ME+SSAeywo8hSgppbuH3FAQCCAAACgI7CcMJlum5qL6GtY11tNaSlFnfEk2xmzW1YwaPhIUXWQuxUq0YqSkunkm+uxVgEEAADtCeekx166JIrVwLTHOMAvOeA6OS5b0aK4DbPRYyURYKPIkwCOQ+HeCCZDhmPNAggAANpexrff4/azkZGKjyaXc5ZATkQEuW/eKgL/niUCTIaNoHu2dooMDCxKSaFTb21Ax0AAAQBAWzAZOkIUokE1P3lYYWISnfv40xa1GVZyYODDY8fp8HBUCAQQAAA8F2ZjxtEdcws4f5lZZUEh+e76lQz79GuRCHjg6Ky4kx0OkDy++nUUBwIQAAC0FqtJU+m+vYPIO4fJz7g1sM/OH0QXxmeNtcWEyYqsGHjX2kZcX2E9AwgAAFqI3Zx5FHnWU7HpYmqxsqwsuvL9j88UARwz4LBgESUFXFfU96/IzyezUWOxpgEEAAAtKuk7dQYlXLsmKqvB5B4Z2Ehl2dlCBPBR/1NFgG5vcl7xMmXcv6+oLoKiOiDWNYAAAOAZzn/aDEq7EwzHqbTrgMIiuvbLr3Rw4EvPnAOn3npbNNdRimXcvdeqBkoAQAAA9R37z54n7fx94S0VHhho1ILAwEtf76Dq0lLFxEIce2U11jiAAABAE9w7PvbSZWrAsb/iAwO5XfOz6z70FdUClWD1NTUi1RHrHEAAAPBktP+U6RThcYbqkOqnCitMSiK3TVueXfJ54hRK9PNXRBxEkn9Ai64/AIAAAKqBC6Xctz9C9dU18IxqiQv8o2LgyXVvPTVHnjMDOI8+PzZO9t+5IC6OXFa9ijUPIAAAEAVg+vRHhT8VW9qdO+S8YhUZ6PZudo4Y9OxNl7/5TlwdyNlqKyvp+n49rHsAAQCAQc8+5PneB3D+KreEq9fIbtacp84V05FjKOzUadmnhYa6HCMjtAkGEABA7Zxev4GKkpLgAVVuXPmPa+Y/q28AnxTkx8n7KoCLHNm0sGUyABAAQJHYz5lPyYE3xF0wDMaNgLhGwLOKBF396RdZlwrm4EfXtW/iHQAgAIA64c5+oU7OSPeD/cNKMzPJY+v2pwYFHug3kHLCI2T7Hesqq+j8p5/jPQAgAID64Bf4tZ9/oaqiYng8WBNj5+60fKWI/m/+6mijrJtDXdc3JKO+A/A+ABAAQD3wS/3EmrVUmJgITwfTaI319RRz/gJZTpr61BOkOG9vWQcCcuor3gkAAgCohkMvDaMkvwB4OdhTrbq0TOySmyuaw9kjZ9/7gCplmhbIsS9Wk6fhnQAgAIB6uPrzLmqQdngw2LOsPCfnqUWCrCZPpXifK7L8brnR0WQ3ey7eCQACAKgn6r84NQ2eDdZiy5McpekIzUflXDjoyo8/i+wBuVlNWRk5LVuB9wKAAADKx3jQEIq5cBEpf7BW26MTrs0GzDksWkIZISGy/F7HXn0N7wYAAQCUX+3v8o5vqSIvD94M1mrj9sFuGzU3DeKKeg+cXWRZF+Dsu+8/NdMBAAgAIP+j/3kLKO32bXgy2HMZO/fIs55kMmS4xvnl+cGHVJ6bK7vvdeWHn4Q4xjsCQAAAxeb8++/dJ+ucbVjXW2FCIrmue0vjHDMbPY7yoqJk950C9Q3JsFdfvCcABABQJraz5lB2WDg8GFtjo4iB+BPOhmD+/mf838A0nQLU021Tc40Ok7MEojy9pOcnr2cX6nwMxYAABABQJvyyDjQwUqXDqq+pocrCQipJT6e8mBjKfvSI4nx8KNTFRXDLxJQu7fiOfHfvoXt29uLPHrmepOTAQMqJiKCCuHgqzcqimtIyWde9b09LuHqVrKdM1zjXvL/dKbvn9PC4KwQAgAAAysRm2kxVpf1xr/fcqCjR2jbYypouff0NnXhtDZmNHtvqaxMuEnN6wyby+22vtFN0oST/ACqIT1C1GChKSRFVJDWeNM2cQ3UyaykNAQAgAIBiuWl8SPmn+vUNVJScTOGnTtOVn34WqV1mo8a263M06NWXLCZMopPr1lPAvv0U5+0jmuao8VTl4pdfi/x/Tc+pICEBAgAACADQ1VhOnCJ2rEq+z88JDyf/Pb+T88qXyXTUmE5J6eKocatJU8l17VsUZHKYcqOiVVVZ8dZh02bLA0e4e8jqu8RcvCROe/C+ABAAQDn06Ek3jA5QXVW18vx+Q4O40+e6BmZjxnXZDo4D3w70H0RmY8eLz8InAo0qEALR585LYkvzCcsNo4Oy+i6ZD0IlMTMY7wsAAQAUdPc/YxZlP3yksCj0OhGYd8PwgNjta9sz510xxwvwZ+SjcqUaZ5RYT9UcCOixZbusvkvkmbOikBHeGQACACgCPgbnAidVMu3SpjG4r6JCFKLh+32DXtpbuIXvxo8uXkqhLsepLDtbkQKgJD2D7GZpbqLjsHAJYgAAgAAAXYXpyDHiLlYpNf85wI931qbtHNjXkRweNpI83/9Q2i2HKU4ANNTWCUffXNwJBAAAEACgi3B9400qTExShLNJD75L7pu2kmHvfrIci2OvrBYZAw21tYoSAXzKoen7mo+bIKuSwBAAAAIAKKrsb6C+geyD0TiqPjnwBjktXynrWu18HWM1eSrddzgqy5a5rRUAfErD7YMhAACAAACdjPXUGWLXLPdgv2iv860u3qPVFRl79yO/PXupIi9fEQLAafmqZgVArox6AoQcdSKjPv3x7gAQAEDmwX89epLrmrVUU14ua+eScM1PUc7/HyLgt71UXVoqewHg+sY6kWoqdwHgt3uPKPKE9weAAACydzC3TA7L/s7fYcFiRY8R58rL/TrgaVcAchIAaAcMIACAIuA89LyoaNk6lZzwCDr55nrFv5APDx9FIQ5HZR0Y2JwAsBg/SVYnHBAAAAIAKAJH6aUs15K0ZVnZdOGzL1TRm52varjRUJTnOXm2HpY+c3MCQG5pgKKxkYarDAAgAICsCDokz+N/7iB3z+4IHRygrpKs3L+AS9E2ykwEcHdJ21lzNH4nqynTZJVpwmOAdweAAACyJ+3OHVnuJjPuh9CReQtUOWYXPv+SKgsLZTVkudHRZD1tpsbv4/Lyq/I5dcrObragEQAQAEA2cKtaOaaY1ZZX0Nn3PlB13YZHridlNWZcn4Hnm6bvc/7jz2TzPbhegd3seXh/AAgAIG+8PvqYasrKZCcA+B5c7XnYdrPnUm1lpWzGLNTZhUyGjtD4XQINjGTzPZKuB4q2znh/AAgAIGvu2dpTvcyiyvnum6P+VV+/QacX3TYzl8243ZCc/IH+mjvoJfr7y+Z7cIlmzlrA+wNAAABZ55an3Lgpu90/95U/NGQ4xpCj5ydNEU2PtN1YZHp9+FGzQqYyv0A28++OuSUZDxqC+QcgAIB84QC6nIgIWTl/blXssWWbcBoYQ12RAXHLxFTrOzjmx8WJlsyavoPZmHFUV1UlmzkY8Pt+lAEGEABA3rht2iJSs+RkMRcuNBtIpsprgD/KOBenpGr1uMVe9ha5/hrn4cbNVF9TI4v5x5+T605g7gEIACBruJpZVXGxfPKv6+rF7gsV2J7YQY8eRxEeHlrtNIOMTZot1nTXxk42XSi5ZbHH1u2YdwACAMibYEsrrT86/rsVp6WR++atGDsNd+i+v/5GtZXaeYxekp5OZ7a9o/GzcyxH1oNQ2czB3MhIUbMA8w5AAADZcnj4SIo8c1ZGof9Eib6+OP5vBqflKyk7LFwbUzYoKSBA9DHQ9LndN22hssws2UzDhKvXyGoyUgABBACQMVxTnl9mcjEOEuOSxRg7zRgPHkqxFy9pXY8AMW4mh5s9ubh5wFg2HQ75muK+vQMZ9R2AOQcgAIB8cVy2grJCH8pGAJRlZZH7lm0Yu6dw29Rc66Lp+c7cadnKZqL/x8tKhHLp5cvffIe5BiAAgLw5ue4tWeSP/2mFCYl0ZN5CjN1TOP/p51RZoF359Fw0x7CZlLnTb2+koiT5zMH82FhyXrEKcw1AAACZpwBu3EylWfK5e816+EgULsLYNY/DgsVUnKpd6YCezfRr4GP0G0YHZdWGOvXWbTIejAJAAAIAyJzLO76VT/xfY6Oo/odxezocUZ8fG6dVO+bmRJvj0uWUGxUtmznIqYzBVjaYZwACAEAAdGr+v7RL5GYxGLdnkx58V2vG7Novv2qs2MiiwGfnD9Qgox4U1SUldGr9BswxAAEA5A2XMQ3Yt18+uy/JUXg0k0cO/kmEu3YUBMqJiBTdCjWmoI4YTWm3b5OcrCQ9A/0nAAQAUEbKWLCltXwEQHV1s5Hk4J/cND7U5amADXV1FLBfr9nOf2fffV+MqZws+twFzC8AAQAgALpCABxdtBRj1wJ8vv9RxEx0acBm6EORZqrxM/boSZkyqvz3p53/5DPMLwABACAAuqKYTHOV5MA/8f7u+y4VALUVlXR9vz4Z9OqjsfDPFUmg8AmBnIznn/nY8ZhfAAIAKCBa/KVhdNfGVjYv4NrKSoybDAQA/960O8FkP3d+M9Unp1L2ozDZ7f6T/APoQP9BmF8AAgDIH9NRY7UmWAwCQDkCgCPlL361o9nA00BDI6opK5edAPDdtRsdKAEEAFAGFuMnUZz3FQgACIB2tTifK2Q8SHOhHJdVr1JOeITsnD+X/+XPzrELmF8AAgBAAEAAQABouPt3XLJcc9rfsJEUcuSo7O7+hajx9hHrBXMLQAAABAFCAGg1V3/e1ekCgKvkXd+vp7noT6++ouhUfXWN7Jy/KGa0azdKUAMIAAABAAGg/YQ4HO3UOgCNDQ0U5+PTbJS8w8LFVJiQQHI0blTETbMwrwAEAIAAgADQevjIujMtNzKKXN9YR/q6vZvu/qWdc9QZT5KrxV68RObjJmJeAQgAAAEAAaD9dGaaXWVBIV3b9Ssd6Ke54h/X+6+rqpal8+fc/5sHjRH9DyAAgLI4OGAwBR0ygQBQGOZjxlNBJx23c3+G8FOnmy3QdGLNOiqIT5Dt7p8/+/HX1mBeAQgAoDzk1A0QAqBlHHtlNZVmZHTKmCT6+pPJ0BEaq/05LV1BmSEhsnX+HEQZf+WqqF2AeQUgAIDiuPjFV7JJy+LjWK5eiHF7On57f6easrIOH4+86BiynDil6Wfo0ZOsJk+jqLOe0tyql60AqC2vIO/vdmJOAQgAoEzObH+XKgoKZPFCRjOgZ8O71fDTbtRY37GONzcikk6v30j6GgrjcBGgYCtrWVb7+7sVJiWRxXgE/wEIAKBQ3DZuptLMTHkIgJoacln1CsbtKVhPnUGpt2536DiUpKfTuU8+I8Nmjsb99+6j6pJSkrvddziKOQUgAIBycVq2krIePpJHQZbaWjr/6RcYt6fgvmUbFaemddgYlOXkiCqDRs1E/J95932qKioiJZjT8lWYUwACACgXu1lzKeXGTXkEZTU0UNjJUxi3ZuA0PD567+idv6bfzacBfJ1UlpWlCOefcM232bRGACAAgCIwGTaCItzPyObFzPnteDFr5si8hZRx916HPPei5BQ6/+nnzQoPz/c+oIL4eEU4f75quvjFl2SgoagRABAAQDHwS+7+EQfZvJyLkpPJadkKjN2T49irL134/EuqKW//wLushw/p7Lvvawz44yp/ZyXnzxkBSrHs8HCynTkb8wpAAADl4//7PqqtqJDFy5nT2zjIDOP2T0xHjqGEa37te+VSX08Z9+6LaP/mGuF4bN0u2xr/GuNM6uroxoGDokgW5hWAAACK5+x778smE4CLs8Re9ibTUWMxdn8v/vPyapEm2W7H4LW1FHPhIh1dtER08tP0O0+/vVGaN1mkJOPUP9H4R8NpBwAQAEBx8Es+NypKNi9pDkbjgDN9vKT/OoZPDAhot+dbWVgo6t8f6K851oJ3x3xqVFVcrCjnz21/+TrsQP9BmFcAAgCoJBBw6HBKDQqS1cuaswH42Bvjp0vum7a0S+tfPv7OjYoW1SE1iivpz8xGjaVAA0Mqz80lpRmnT7pJzxJzCkAAAFXx6ISrrMq2VuTlicA0tXdps5wwWRJvt9r8PDl3nysIHl/9erNH/tZTptN9+yOyr/DX3O4/+tx5jX0NAIAAAIrmyo8/yyYQ8E9LCrjebBc6VRz9S446YJ9em+v+FyYmkfe3O8l83ATRxEfzNdFSSrhyVXZzpKVWXVKC3T+AAADqrQhYVSivCm4cqHblh59UO2YnXl9LuZFRbTr+j/L0IocFi57a8c5twybKDgvr8P4CXWmJ/v7o+gcgAIB6yYmIlGXRllPrN5C+moq29OhJNtNmUry3z/OkUYgTg+TrgXTyzfXNpvdxDIDpyNF0w+iA2B0r2eqqq8nl5dV4BwAIAKBe7tnZy/IFnh8dQ84rX272+FppHBz4Et02NRe9EVrr6NKDg8n3tz10eMTo5osK9exDzitWiZiA1v4OOVqExxky6ovdP4AAACrGbeMWeQZw1dZRkn+AqBCoBhFw6etvRBBkaxw/F/S5bmAoej887WcfHjZS/PxsmTSIaquVZmSSy6pXkfcPIACAyqvJjRpLVTI97q2vqaWkgAA6unCxousDcMEfdlotTevLvB9Cvr/uFvf8zUX3i12/bm9RD+Khy3GqyM9XhfPn53PL1IyMBw/B+gcQAEDdGPUbQFFe52T9Qk+7fYesJk9V5Pg4Ll5GWaEPW/QsUm4GkdcHH5PFhMlk1HfA08e9T3/R6Cc3MlLEVKjFcsIjsPsHEAAAiMAvnV7kvnmrcKRytvyYWHJds1YxFd34Tv6E9H34GJ9bIjeJ65P+jKvyFcTFU8hRR3Je8fLj4L6nODY+JeFYAv5vufWtpp+rZOPAxqs/74LzBxAAAPyJ7cw5Ymckd6ssKBQ58pYTJ8v6SoC7/LmufVMc5T9p3PkvLyaGor3OiXt762kzWvQzuX0vB00GW1gqPsJfYyJEfT3FefugnwSAAADg7xx6aRjds7VXxIueHSQ7x5Nr32o23U3bcV2z7h/On2MdMkNDRSlkvtvnyn3POuL/O3az59INo4OUGxGh6Lz+pxmXMeYUSKx3AAEAwBPXAOc+/oQqi4oUs9vLj42jIGMTspokr9iAs+99QDmSo+a8/dRbt+i2mQV5ffgxHV28lA4PH0n6ur1acbIzm6798iul3wkWWQFqNha4ai8hDSAAANCI/dz5wuEoybiEbdaDUEncfKr1vd75tOLU+o0UKO3U2eHzrt1i/ERxZ9/a6wyz0WNFMR/u9lhdWkpqt/y4OFHyGOscQAAA0EyluUADI6qrqlLe/W9Dg6h46LPzB7KaMl1ry7+yoxc1DVrp8Dmd79DQ4ULE3bO1E/UCGtuhU6Aijv5zHh/9o400gAAA4GkpZ8tWUF50jOJ3g9d27SaXVa+INrdyLidsPGgIHZm3kM599AmFu7lTZX4BPP4TJ0DX9+tp/ekPABAAoOtrAvQd8LgUrMxTAlsSI1CUnCy+K6eFOS5ZRoa9+8okPbA3mY+dQG4bNot7bU4TVOKpTXvUh4i77E0202dibQMIAABawukNm1SVJlZbXiEK7URIO2jfX38TVff43l3bxsVi3ETy+uAjum9/RJRAZgEDa0bgNTZSTni4yJZQS68IAAEAQLucAiQFXFef02hoEAFzJenpInAw5MhR8ti6ncxGj+uyQkA202fRxS+/FmmNXPCH7/brVdCop63GAvbch5+QQS9E/QMIAABaxbFXX1dVedjmdpF8VcBHycUpqRTl6UXX9+0n901byWToiHYJKmMnbzx4qBAZnLLntnEz3TpsSik3boi8df7dolofAvpabCyQuOYBgv4ABAAAz3MK0G8AxV66BG+i4V45NSiIvD786KlNdp5Wb4GLLtnOmE3HVr9OFz7/kkKdnCnjfogo6wtrm3EsRNRZT63N8gAAAgDIojAQ70YrCwvhVf6w4rQ0umttI8omtzpaX9rlH3tltQg4DHFwpOTrgVSamam6WvwdKs7q6yXRepmsp0zDGgYQAAC0BdORo0XpWaSSVVDsZW9y37KtVcGBHEvB9fyv6+mL6wPuuldXWQlP3SFZHQ2UHHCdnJatFDURsH4BBAAAbTwF4IyAouQU1ToWPgHhXTvf0bfUsZiPGS+yCTg9rzQjU/QmwE6/Yy0/NpZOvLYGzh9AAADQnuVpgw4dproq9dSR5+A/zgaIuXBR5JA/K42M75vNx46nU2+up4jT7lRVVASH34lWEB9Px155DS1+AQQAAO2Nw8LFj3vSqyASnTMfsh4+oivf/0gH+g966nPh9rpchY+rCvLzqa+ugTfuAud/4rU3sE4BBAAAHQX3neejbKUf9z88dpycVqwig6dE+POOn4sF8d0+R+83IC+/SywnPILcN21BoR8AAQBAR8Kpa1yMRqlWmpFB5z/5nMzGPL3oj+OS5fTAyVkE9HFwIKxrLDdCcv6bt5Ih0v0ABAAAHc+R+QupskB5zWYSff0eR48/ZdfPgX13LCypMCERO/4ujs/IuHuPnJevEvEpWJcAAgCAzihNq9ubLn21QxGpbBykx7v+63oGdHj4qGar9FlOnEJ+v+2l4tQ0BPZ1sbHwir9ylawmT0XAH4AAAKCzOTxiNIW6HJN1mWDeRabcuEke295ptpqf6cgx5Pn+h5QZEgLPqw3xGUVFFOFxhg69NBTrEEAAANBlWQELFlPqrduy3BE31NZR5JmzzVbz4wA/55Uv0wNHJ6oqLILn1QIrSUujgP36ZDZ6LNYfgAAAoEuvAnr2EbtnbpAjJ+MOcbdNzch83IRmy/X67f5NtJFFSp92nNTkRcfQuY8+EWODtQcgAADQArjMLafB1cokHoDr7nt/9z0ZDxqi8ftYT51O8d4+VF1cAs+rJZYcGEhH5i1AsB+AAABA60oF6/YWx+l8rK7NwX6ZIQ/IecXLTfPFe/QUtf0vfPaFaL3biJa7WjFelQWFdNvMgoz6DcQ6AxAAAGgrJkOHU7zPFdGMRduMAxWTAq5Lu/sZGsWLzbSZdNfKWpTuhXW98WkSx5Z4bN2OXT+AAABA608BpF00F8fhqHqtciblFfTI1ZVsps/S+JndNmyiOG8fqquuhufVAuMTGK6zYD93vsaGPnzlxPX+OSXz6k+/0LFXX3tmqWYAIAAA6PCgwN50ct1bojqeVjj/igoRxW8xYZLGfHGvDz+mwoQEeF0tMRaPZ997X1Sb1HzKNIL8du8RpX/5moZPdnKjokS/hta0ZwYAAgCADoBLsnJp1sLEpC51Jryjf3TCVXTne9L587Gy/57fRYtemHbs+oOMD4lTGk27fj6psZs9l8JOnaaq4mJOC/jH/56rUt4wOkAGvfpgDQIIAAC69DpApxcdX71GEgGJXZPmV1pK137dLdIUn3QkFuMnUchRR6pVeEMjORjXV+DrFw7M1Oj4pXnE1RkD9QxEVsbT6k001NdTqLML0gQBBAAA2sCJNWs7/Yidd4MBevpNP4/k/PlemU8FUMO/a427SabfvUfnPv5UFFzStOM/PGykiM/g4M2WFpriU5/7RxzIbMx4rD8AAQBAV58E8HVAbkRkpzn/6/qGGoPC7GbNFc4E1rXZGJkPHlCggSFZTZ6mMS6DT21cVr1C9+3tqSw7+7lOf+7Z2pP5uIlYgwACAIAuLRQk7fA4nSv74aMOTRHkgL97tnZkOmK0RufPKYqwrrOS9HS6efAQHV28TETya5orHPzn99seyg4La1OPCa70GGRiSoeGDMcaBBAAAHR1YCC3bc24d79DiuyIgL/jmgP+bGfOFvfMDXV18MJdcc8vOWM+lrefM/+pkfrHV79OcZd9hPNulzgQ6edc+fHnJnEgAEAAANDZSI7Zesp0Srt1u107CLJj51Q/4yecC18/OCxcTEn+/mjf28nWUFdPZdk5FOFxlo7MX9SsE+ZsDD6dCbayoYr8/HYXhzw3rvzwo8Y4AwAgAADoZLiN6wNnF+mFX9DmF3xjfb3k4AOaHilLYuPooqWU6OsHb9yZd/y1tSL9M/y0O514/Q3JwfdttnS01ZRpknP+iQri4jo8I4RLPEMEAAgAALRCBAyja7t2U35sXJt25xxJzkfLT/58TvVLCgiAR+60HX+d6NYXbG1Dp956u9k7fsZ87AS6+PmXj8tGd8bJTGOjJDLiRTCqvoZUQwAgAADoZDhSn1/KabfviBzu1lpedDS5bdzc5HiZ88Y5HgDWOVYQH09Bh0zI5eVXn3rHz8f9PF7R5853yHH/UzVAQyNl3LsnsguaNIICAAIAgC4IDuzVV1R4e3j8RKte6NzS94K0i3zyWJcd0H17B9m0JpazFaemUsB+fbKdOeeZZXj5v3koibLSzKznEnvtdUoRc/ES0gMBBAAA2pYqyEVh+ErgWQGCHN3tt+f3Jse57IRuGBhJf18K79whJ+mN4tlzS+WLX35NpiNHa6ze9/cdP3dfDJTGpDwnVysCMfkzhLu5k/GgIVh3AAIAAG0qGmQ/bwGFuhyjkvQMjQ6DxQGnlBn16dckzZBPBMqysuCpO2DnzDn8CVevCZH2rFK73BCKT3V8dv5AOWHhWvmduIugAeIBAAQAANoFd3w7s/1dIQRyI6Oopqzs8ZFzWprk/I/S4eEjm0T8u7y8mnKjouGt29nxc1fHEIej5LHtHWlcnl5Uhx0q11xgx58adEsSa9pbbplPJE6/vRHrDUAAAKCVmQJDhpHzqlfozDvviTQubjOsqbKb6cgxlBJ4Ex67HS1b2rn77/1dPP+WNNcxkcbl0lc7KNHPn2pKtf8Khk+X0oODyWHREqw1AAEAgFx5cNQJhX7awbiaYuqt2+IqxWbGrKem8v0dz/c+oJQbNx9H9stoHPg6iQtImQwbiXUEIAAAkBN85MzBaKI/POy5nX55bi49OnmSTry2RsRSPCtNjp+7ybAR5LFlu7SLvvs4aLMTU/ra0zio0ef7H1AkCEAAACCngEGnZSsoNyICXvw5ovkri4oo80Eo3Ta3JIcFi0mvR8ueu+XEKeT5/ofiqJ/FgxKsKCmZjr36mmhBjLUFIAAA0HK4mlz46dPUUFsLj96a4Ddptx951pO8v9tJtjNmtzgSnp+314cfU9yly1RTXq645xIrfS/jwUgNBBAAAHQ5XM3PZtpMspo0tUk9eT6u9f52J1UWFMKjt2THX19PRckpdNfGlty3bCOzMeNbdsoi7YgtJ06maz/vEt0U+Y5fyRkPV3/8GWsPQAAA0NHH946Ll4mysJwydsfCSjSP4QIzf5ITHkF5UdEU8Pv+JnfSNtNnUX5MLDx7C6wgIYH8du8RXRGNXxrW4mNuFmAB+/QoK/ShuCdvlOkdf2uMmxhx4SKsUQABAEAbnTzX+mdHYjtjFnm++77k6C1FfjgH7dVVVVF9dY3oHselYTVFj3MDF04F/Mfuv+8ACjt5WrZBZx0e2S49z8qCAkq45kseW7fTgX4DW3TMz8Lg4IDBdGTeArp58BCVZWeLXbGajOchX488OecAgAAA4FlIToRTqhwWLCL3zdvotqk5pd8Jfq6XcVlWNh1/7Y0mv4OLt8A0R/NnPXxIDxyd6fjq11sV1W46YjS5vrFO9FDgGAE1W0VeHl3e8S2qBAIIAABaAjsb3jle/PIrCnV2EeVfa9sQKFZbXkF+v+1tkofOpwmcdgb7X6sqKqIk/wBp124sxuDJeIlncXTxMpELr3bH/3dLDrwhmhdhbQMIAACagZvvuG/aQnetbURVNb4rbg+Lv3qNrCZPa/L7fHftbpOwUJJVFhaKpjZcm59jIp5sidxS7ObMo0tffS1ODrhdLhopSQK0okLMtZYWQgIAAgCohgP9BojSvGm374i2vO2ZD16akSnSzZ50aLwjS797V/V3/xw/cd/+iOhrzyWQ2+OoWl+3l+i/YDVlOjktX0lXvv9RNP5pVPGzzo+LI7vZ87DeAQQAAOyQzUaPowuffk7ZDx89dvrt7CC4eQx3+uPAtX8Ijv4DRQChNjeX6bAUPukZczMkborEtfktxk8iw159RbxFR1ZY5Gsd6ynTRBYG9wXgEwdVBQVKzz3Y0pqM+qJCIIAAACrGSnIEfL/PO/6G2o5zAtzN7+jCJU0CC7lKm9o6/XFWBEfiJ/r60cWvdrSoIU+Hnfj0H0Qn1qyjh8dOUH5srMg0UEVgZVWVqDaJdwCAAACq49BLw+j0hk0U73Plcb33jkzBknaXnH7WJM5g0EsUZHJYNbtP3vFzq9qos5507pPPxNG8Ns2JY6+spttm5iIYs7ayUvHjEeHu8fjEBe8DAAEA1JLDbz93Pt2ztaPilJRO6fDGu12LcRObfBauU1+YkKiiCPRA0f6YS+8+qylPl2Z9LFgkrgcKE5U9NuW5eZLoeQ3vBQABANRx13/5629EJT4+Au0suyXt8jV9liATU1W0+uXgvkB9Q7KcNEVrHb+mqwG72XNFFohSOzLyyVOY6ylJ9PTD+wFAAACF7vp1e4sAs0iPMx1+3P+klaSni9/95Gfi4++yrCxl3zNXV4t7/mMvv0qGveXpZPhEwHnlyxR/5erjawGFZQ9wHwUuQIX3BIAAAIrDeNAQctuwSeSBd8Vum3f/T0b+M9d+2aXs4+WcXNEHQdPVhxw5PGI0BezXo7zoGEWJABbEwdY24sQD7wsAAQAUg+moMRTw+z4qSUvrojvWXHJds7ZJkxqOeldy1b+StHTR0fDAgMGKmk8cMHfi9Tco5cYNRQVucpllZAQACACgnCj/IcMo1PmYyPHuKov2Ok/mGnbAZ7a/Q1VFyrxXzo+LJ8/3P5ScZR/Fzq0j8xeJu/OOTBvtTBPVAX/9DdUBAQQAkD8cZR7v7dOuVfyeJ8/66s+7mlT947vwKC8vRQb/cXtej+3vKj61jE90zMeOFymDXMhICZbo50+WE6fg/QEgAIB8o/yPLlpKKTeCqLG+vouPVR+R07KVTT4j/1luVJSiHD+LGS5m5LZxswi4VMt84xbDNw8cVMRpDrcLdt8kjZ9OT7xLAAQAkNn9rLSzPvXW25T9KKzrHWJ9Az06cbJJ8B+XoeVOgErZNf5pORGRdHrDZlXOO06hCzQwpOpS+TcainQ/g2sAAAEA5Jfmd+rNtynzQajW5L1f/emXJp+T+w1EeXopyvlzjMWp9RtUPf9YBHC2h9xFQGV+gajVgHcKgAAAsoHr6eeEh2vNi5QryDkuWdbkcx5fvYYK4uMV4/z5JIPTGTEHHwedckyA3AMDvb/bifEEEABAHlhPnaEVx/7/e/5PlHrrdpPCNwa9+pLP9z8qJnKcLdjKWvRUwDx8DBd8Cj/lJusUwYy79zCWAAIAaDk9egrnnxxwXasi6vnlH6Cn3/T4f9RY0QRHKUF/cZe9yXraDMzDJ+ak/dwFlHLjpmyzPKoKi0TlRowngAAAWovZmHEU6uzSqTX9W5r+x13lmuSOL1hEJRkZCvD+jZQfFycCLjEPNXNm+7tUmpEpy+Hl+cuNkDCOAAIAaOd960vDRHvd6pISrXuBcvU/Lj/8jyBFnV50/tPPFHLvX06BBkaIFn9GxcAgYxORWifH0x1ukX1QYVUcAQQAUEiu/4XPv6TyvDytfIGmBt3SmKIYdvKUIgQAxzcopb5/R2IybCSl37svyzHmEx4XXAMACACgjUF/hQna26f99mGzpmli/QYqorc87w7dN2/DPGzpVcA778kzDqC4mK788BPGEEAAAO2BC+skXw/U6m5sHluaOki7WXOljyz/DnIc+Gegokp/bU8NHE5hp93k1z1Q+rxcyOrJqywAIABAFxVb6S+i67Ut6O/vVl9bq7H5j/d338ve+VcVFZEjOsa1rkBVj550ct1bVJ6TI8urHs5owDgCCADQ5ZX+Tr+9kYqSU7T6pVmcmkqmo8Y2+fzhvAuUuT1wcibjl4ZiPrY2W2X0OAp385DdeHPGCq85jCGAAABditXkaRR78ZLWR1UnXPMVx75Pfv6c8AhZO//KggJy27RFZDNgPrYyaFUSrxe//Ioq8vNlNeZ8msVxAE92swQAAgB0akrV5R3fiiNobbd7dvZN0qespkynsuwcWQsAbhVrM20m5mMbBKyIXZGZhRx1JJOhIzCGAAIAdA1H5i+inLBwWbwwudOfYZ/+//j8Hlu3i6hquVpdVTX5/vobdv9tjAW4bW5BddXVshr75MAbQrxgDAEEAOiSwL87FlayeWF6ffBRE0fp//s+qq2slK0A4CZLzitWYT62Eb5PL82UV3VA/rwOCxdj/AAEAOh8uKMetyiVg3F8Akd8P/kdHh47LtvmMJz3H3nmLB0c+BLmY5tTAoeJIlFySwl027BJnGBgDAEEAOhUwt3cZfOi5FQvl1WvNolf4PtzuRr3t7+2azfmYjtx67Cp7MoD++/ZKzpZYvwABADoNJyWraAKLS33q8kKk5Ob5Mlzydz04LuyFQDFqWnkuBS5/+0F76bra2rklf7p6Cyu4jB+AAIAdFrq1F0bO5GKpDVH/HV14i6/uqRUpHTlRUdTrLe3CJBzXfsmmY8d36RK3pF5Cyj7UZhsBUDWw4eiBgPmZPtgPHgI1ZSVyWoOpN66hcZAAAIAdOLuf/kq0ZCk6y6/G0WnwZL0dMqNjBJ3t6Eux+jqL7votLSLMx87oUUlcU/JoHhR84+gkYKtbTAf25kMmTUIKkxKQklgAAEAOi/vP+iQSaeW/OXdPfdvz3oQSnHeV+ie3RG6+vMu8tiynRwWLBY9CJ7nu5z/7HPRHliuAYDnPvkMc7KdCTt1WnZzwXTkGIwdgAAAHY/tzDki/7ijI/bLsrPF77kr7XIvfvk1uW3YTI5Ll5PlhMntduzt/d1OqpRBASONAkB6Rk6o/d/u8JWR3AzzAEAAgE6BW6h2RNlUriSY6O8vIrG5OM/RRUtEkRPjwR1X354LA9VWVMhSAPCpiFG/AZiT7QzXipCbnVy3HmMHIABAx3J4+CgKdXZ5/lzpxseOq6a8XGQQpATdopsHjcn1jXVkOmoMHRgwmAx79+u0qnZ3zC3k1wr2D8uLicWc7ACsp86Q3Vy4+MVXGDsAAQA6lqOLl1JRcnKrX1Ds8DnYLu3WbVG//MJnX4hAva7+PncsLGWbAZB2+w7mZAdgOXGyVmW3tMQC9AwwdgACAHRg6l/PPnTp6x0td/qlZSLFLuqsF/nv3Ucn31xPh0eM1qrvJGcBEHnWE/OyAzAbM160jZaTBVtaY+wABADoOA4MGETRXuef+TLKiYikEIejdOHzL0SN+sMjRmllqVJOnXp4/IRsBQDXYcC8bH9MR42l3KgoWc2F6PPnMXYAAgB0HCZDh1N5juaUOS5JG+11TgRQ2c2ZJ1qUant3On7R8+kEBACQuwDgglcYOwABADoMTsP7M2CuobZOFOLJDHkg7fS/JKtJU+lA/0Gkr9tLVi96CAAAAQAABAB4Bhz9z04/JzxCBPKdeP0NERcg5xc9BACAAAAAAgA8gyBjE7r2y69kN2uO5Ph7K+JFDwEAIAAAgAAAz6oBoGUR/G0Oauw3kB44OkEAAAgAACAAgNqQcxogBAAEAAQAgAAAQIUCIOGaL8awQwoBTRG9KCAAAIAAABAAWmk5EREYww7AZsYs2c0FCAAAAQBAK7ltaiba6srRassrMIYdwMl1b8luLoSdPIWxAxAAALQGbv3KfQrkaHxMbTFhMsaxnbn09Teymws3DhzE2AEIAABag/d3O6myqEiWAoBPLrw++gTj2M7cNDaR3VxAMyAAAQBAKzn7/odUmpklTwHQ2Ej3bJEJ0N6k3AyS3Vy48sNPGDsAAQBAazi2+nXKj4uTbSBg5v0QMujVF2PZThj27keVBYWymweua9Zh/AAEAACtwXbmbMoKDZWtAChKTia72XMxlu2E4+JlVF9dLbt5YDtzDsYPQAAA0BpMho2k1KBbshUA1cUlOP5tR/z3/E4NdXWymgP1NTV06KVhGD8AAQBAa+CWxQm+vrIVABwIGHnmLB0YMBjj2UaM+vSn5MAbf3W8lIvlx8fTwUFDMIYAAgCAVhcDsrQSuyi5WvajMHJathJj2UZcXn6VilNSZTf+fIJ1EAIQQAAA0Hqu6xtSbWWlbAVAXVUVBezTEwFsGM/nw0C3NwVK80CONSHuHzkqTi8wjgACAIBW4rZxM1XJtBbAn5YcGCgCGjGez4flpKmUFHBdlmPv8933ZNCzD8YRQAAA0Fpsps2k8pwcWQuAmtIyuvjFV2SIlMDn4sw771FplvzqQdRWVNCJ198gvR49MY4AAgCAVud+S04zOyyM5G4JV6+R6YjRGNNWcnj4KHrg5EyNMusAKAIA4+LIfs58jCOAAADgeblnf0T2AoDT1y589iXGszVIO2fXtW9SRV6eLMc8ztuHLMZPwjgCCAAAnpfzH39KSrDilBQyGToCY9pCOH8+wt1DtuN98+AhOtB/EMYSQAAA8LxYT5muCAHA/QFuGB5AUFgLOb76daopK5Np9kc1nf/0c4wjgAAAoC0c6DeQSjIylHEKkJoqetpjXJ9V+KcfxV68JNtxzo+No+OvrcFYAggAANoUCNi7H0We9VSEAGior6eEa76oD/8M3DdvlWXe/58Wc/EimY+dgLEEEAAAtAV93d7k/e33sisD+7TiQMEWVogHaAazMeMo80GorMc30NBIlLLGeAIIAADayJF5C6kiL5+UYpWFheTz/Q9k1HcAxvdvGA8aQsFWNrKu/liUnEKn3nob4wkgAABoD8zHjqfYS5dJScbxAGff+wDj+9e9f3+68MVXVJqZKedIT0q7fUfMV4wpgAAAoD3iACTn4LtrNzXU1StKBBQmJpH93AW45unRk5yWr6ScsHB5x3jU1or6/1izAAIAgHbE9Y114nhVaZZ8PVBccah5bC0nTKIkP3/RQlnOVl1SIvpXYL0CCAAA2tVJTFbcNYA4NZacXsrNIHJcskwEPKru6L/vAIo5d16W5X6ftIyQEPR8ABAAAHQE3FqXo6yVaNmPHondo2Fv9TgQ01Fj6YGzi+x3/n/a5W93Yp0CCAAAOgK3TVtE8JxSrSA+ni59/Y0qdpFcJ/++w1HRNU8Jxl0rLSag9j+AAACgY3aMI0ZT/JWritkxarKqoiK6vl+fTIYOV2zAn9XkqXT/iANVl5QqZty4ayFnMmCdAggAADoInx9+knWVuJYY18CPcHdXZHAgV0GM97ki2zr/GoP/pO/CJZ5Z3GCNAggAADqsJsAERV8D/JVSVldHBXHxdOmrHaIznuxTOXv1JeeVr1BRUrIiAv7+bnGSoEHrXwABAEAncF3fkNRi3Fku2uucOA04OGCw7MaKux9aTJhMfr/tFRUQFXdlU1hE5z7+lPR1UfoXQAAA0OHYzZqrqPvjlhjXQAiUhM/RRUtlU0L44MCX6My2dyjh6jWqrahU3Jg0NjRS7GVvspw0FesSQAAA0CnHyb37UuSZs6Q24xTIjPshdOOAMTksWKzVx/0uL79KIQ5HFVm86U+ryM+nyzu+xe4fQAAA0JmR5K5vvEnVpaWkRuPUudzISLpjZqFVgYIGur3p6KIlFHLEgfJjYkQcg1KtsbGRUm7cFN0LsSYBBAAAncjh4aPo0YmTimkT/DxWX1ND5Tm5lHDNlzzf/5AOjxglrgc6rRWtJMR4t89H/SfXvkkxFy+Je/762lrFP3vOYrjw+ZfiGWA9AggAADoZbrsq6+5xHXAk/cj1JHl9+DEdWbBIBN+1dwYB7/JNho0km+mz6MSatRSwX4/yY2NVJ8RSg26hnTOAAACgy04BRvApgCs1KCytrM3H09LzKM3IEMF392zs6OIXX0k79LfIcelyUYTHbPS4FlUbPNBvoPhvbabNJJdVr5LHtu3ks/MHCnV2oawHoVRbWanK58tXTyffXI81CCAAAOhKPLa9QyVp6fD6z6gpwPn37LQTrlyl6HPnRYDeXRtbgf/efeTz/Y8C39176I65pfjzUJdjFHPuAiX6+VNuRKQ4YVByFcaWGj87Q1T9AxAAAHQtxoOGULibu6IDzjojqLCqqFjAd9tw8s1b9qMwcli4BHf/AAIAAG3AcclyxALAOtyqiovp8jffkmHvflh3AAIAAG3Bd/dv1FiPnSus465Rwk6eIrNRY7HeAAQAANrEocFDKSv0ITwVrAOiKhspPyZWZD1grQEIAAC0rTiQTi86++774pgWBmvXGInKSvLf+zva/QIIAAC0uThQmOspeCxYu1r0hQtkMnQE1hiAAABAm0sEOy5dQel376q6QiCs/Sw/No5sps3A+gIQAADIAW7PWp6TA+8Fa5NxMSW3DZs6r7QyABAAALQ9IDDkyFGqr66GF4M9l3Esif/v+0SfA6wpAAEAgIywnjKNMu7dhyeDtdrqq2so/LQbWU6cjLUEIAAAkCPHXn2N6qqq4NFgrcj4axTC8cj8hTj6BxAAAMgVg5596Novu1EmGNaKe/9Mcli4GM4fQAAAIHe4dW3IUUeqQzwA7BnGgaOn396IdQMgAABQCnaz5lK8zxWqr62Fl4Npdv55eXR5x7dkoNsbawZAAACgpCqBzitfFqWCG1EfAPak88/NpYB9emQ8eCjWC4AAAECJIuDUW29TSXoGPB7sL6urrKJgaxs6NGQ41gmAAABAuUGBvcnzvQ+ovqYGng8m4kIeHj9Bh4ePxPoAEAAAqOEkwPub76giLw8eUOXO/4GTMx3oOwDrAkAAAKAWDg4YTFe+/1GUeoWpz6pLS+mhyzEyHjwE6wFAAACgNjjgy2/PXqrIz4dHVFnA382Dh8hs1FisAwABAIBqawQMHUFBhw5TbUUFPKMKrLKwkAL26yPgDyhGADTiQQDw/BwYMJguff0NAgMVbhX5BXT5m+/oQL+BmPdACTS+sP9FnSQ8CAAQGAjTbI0NDVSckkqn3tqAuQ6UQ3fdXBYAwXgYALTHScAguvz1N5QfGyecBkwZkf6pt27TiTVrUdsfKAr2/RAAALQjRn36k8fW7ZQdFgYRIHOrraykyDNnyXHJMtEUCvMbQAAAAJ6KoSQCnFesopSgIHhRue78JecfbGlNlhOnYOcPlCsA9LrrXMPDAKCdYwJ69CTTkWMoytMLrYTldN/f2EhVRUXk/e1OUesBcxkoVgB01/V6Qfo/5ngYAHRQrYBBQ8h/7z4qTk2jxvp6eFht3vVXVVFq0C068fob2PUDNQgA8xf0uuvuw8MAoAODA/sPorPvvi+CyRrQTlgbt/1UkZdPDxydyG7OPDh/oJYsgH0v6HfX2YyHAUDHwk2Eji5ZRiEOR1EvQMssNyqKLu/4jkxHjcFcBeq5ppR8/wt6L+pMxsMAoHM4PGIUXdu1m0rQQ+D/t3f/sVWddRzHT1iYyf5wN4Nz7n3uYDCqgGuG+CNs61icMYsQjEnHlEwdg9lMUdgSp+iSaVyc3HMLrDAgBpotCIyxFIqdKAisswMbA5HRZhvOtMomUFpgdFApP9o+fr9Py4LIj0J7f/W+n+QVyG3v7c33nNzPc859fmRFa6x+w/528hQ7f/hIzk/kGTNBZwGMFkcpBpC+qYIrH/iq3fe7KreXPC39A/1ONh22NfMSdtn4L9gwdivnJfJtBsBRzX7tANwmPYE9FAVI83RBuerc/KOn7OG6etvB2IC0tPbWVtuwdZu76uccRB5f/e/R7NevAKLyQBUFATJj+d33un3ldbnZrg4WD0pF6+zosEf2/d1u//kv7At33Ml5h3xXpdnvJXwTCYP4EgoCZHamwIYZj9m3K9a7q1Ra/7W25hZb9/Jau47lfIHzMwCWaPZ7pbf4g8PAzKIoQIZH5Zpb7dLPft4tJfze5i0kdx+bfq3SsG27rZSOlS7KRPgD5zsAZpZmv1cWiehaAJPkwWYKA2RBRyA+3C4eW2h//8PZ9tBbe920QR24RuvdAD8N/qa9ddKRKnF1LJV6cl4BH2vWzNfsdy2MmkJ5sIbCAFk2Y2DEKLt++gzbWF1t21pa2GDocsEvdTnZ1GT/+cafbdX3ZtmFIws4f4BLq9HM9863Ut8MkQfLKQyQnZ4vGG2rvv8D+86GSnusoYFZA+eX7z192m2/XL/uVbthxky7aPRYzhfgyso18z/uAJRFIoPCID5XftBOcYDsVfbpsfbVbz5sdy543v7rzTddAOZjO3PypFu3f8f8hfaVb0yzC0bczvkBXF27Zr1mvndhC6OmWH64nwIBOTBrYGSBXVE00Q0Y3Lvm5bxZWVBv8+95aaXdWPK4LZ/4JW71A9dmv2a9d3FLBnEdB1BLgYBcmjkwzO04uPyee+2m2U+6Ue+nPzrhNh3K9fEC+v71qw6dFrl/xw675cdz7fK7i9zXIUkG9gHXo1az/v86AGWRyI3yw9WigyIBOTxe4PZP2arHZ9n6tetsU129/ejAAXv6xImcGMF/pq3NnpCrfF205+31G+zGx0rsojF3cFyBvtNsX61Z712qhYGZKb9wjEIBA4OuevfKQ9Ps67981g0gfH/nX1y4nvrww4zfIejq7HIdEx3UuH/HTrcIUs280K5/5FG7dNx45u0D/euYZrx3uRYOjRbILzVSKGDgKR02wq64Z6JdWzzVbprzpK1+9lduhbx/bN5im+rq7IlDh2znuXMpu53/n6PH3B2Jxu2v27dWrrI7Fyy0m5/6iV037WG7/K4iduQDUrr4T/xdzfjLdgDKIpEbEkH8RYoF5M8dgt988S770lcesGu+XmwrvvUdu2n2HFvz64TdvbzcvlO50Xm/tta27Nt3VYfr6+17f/ije85flyxzr/Onn/7MVnz7Ebv2wYfc39Gw19v6BD6QPpLtKzTjvSu1ZBCfLL/cRcGAPL1TEB/uFiDSwXaLRn/GeaFwnF067nNXteTO8W71PX2O7m+grzN/2AjqCmRWl2a715sWBvEDFAwAgAFx+/8Dr7ctDMxCigYAwEBgnruGDkCsSJ7URtEAAMhpbZrpve4AJAITiEoKBwBALg/+M5Wa6b3vAPixQYmomSpPbqWAAADkpFbNcs1071qaPMGEQXwNMwIAAMg5nWHUrNIs966nSQfgu/IiRykkAAA5pVmu/qd719tC34ySTsA27gIAAJA78/5ddkuGX3cHQPcMlheZIy92nIICAJATjmt2a4Z7fWmlQwJfXmg3BQUAIAdIZmt2e/3RklEzRV70FIUFACCrndLM9vqzSY+igsICAJDVV/8VXn+3hG90dUC2CgYAIDs1alb3ewcg9GM3hYF5Wv7AWYoMAEBWOesyWrK63zsAZZGIlwxMofyRagoNAEBWqdaM1qxOWQuD+DT5QwcpNgAAWeHfms1eqlup798cRs1iZgUAAJBxbWFg5ms2e+loyagpkD+6lcIDAJBRWzWTvXS2pB+bkIiaIxQfAID00wzWLPbS3bqXCY6VhG7HIQ4EAABp1KkZ3OflfvvwVcAnw6iZL2+knYMBAEBatGv2agZ7mWxhYMaEQfw1eUNnOCgAAKTUGZe5kr1eppvefkj6sS/LG/pbyLbBAACkim7zuyv0zX0Zu/V/iamBn0gGsa/JG2vgAAEAkAKSsXLBPSURiQ32sqlJJ2Bw0o/eL2/yHAcKAIB+dU4zVrPWy9aWCIzODGB6IAAA/eOIZquX7S3hx26SN/qEvOHDHDQAAPrksGZqIhWb/KTmLkB8qHiGTgAAAH0J//gzmqleLrXuToC7E8DXAQAAXPtt/ydyLvwv+jqghIGBAAD0fsCfZmfO3Pa/8r4B0ft7pgiyTgAAAJef59+gmekNlOamCHavE6CLBbFiIAAA/0tX+Nul8/yzeqrfdS8W1L1ioC4bzN4BAAB0a3fZ6Jv7sm6Rn/7dQdCM6dlAiF0EAQD5rtNlomRj1izvm/JdBINYie5lzMEHAOQjl4GShRnf1S9DmwhNkCJsFac4GQAAeUIzb6tmYF5c9V/hbkBBGDWLpRgHOSkAAAPcQc08zT6P5gYI3hwG8WlSmGpxlhMEADDAnHUZJ1mnmUfyX3w3IDCFYWCeliI1crIAAAaIRs02zTiS/vLjArxQVw/0TZH0kioYGwAAyOnv+iXLXKZJtmnG0Xo/PmCKFG+3FPF4yCqCAIDs1+UyS7JLM4wk78v4gCGBL4WcI7ZJUZtZPwAAkJ3z+SWjNKskszS7SPD+WkDIN6MSUTM9jJpVUuRWTjYAQJZo1WxyGSVZlddT+1K8w6CRIk9NBKZSit7GiQcAyJA2zSKXSZJNJHR6OgGDpOhBGMSKpNf1XBjEP2CMAAAgLd/xu8zR7IkVaRZpJpHMGZ1CGJ+cCOIv9kwhPCY6OFEBAH3U4TIliL8rGbNCs4bEzc6xAjeEQ6MFYWBmygFbLWrF/pDdBwEAvdfekx21Lks0UyRbNGNI2tzoDNwoPbXCMGqKpec2Vw5iuajpmUnACQ4AuFBzT0aUd2eGKdYM0SwhUXN8FkGpb4bIAS2UAztJenOz5N8lcqCr5LE9iag5yskPAPmh+zPf7HEZoFnQnQmTNCM0KxjFP4BXGyy9xR+c8E1EDnZUToTbxGj5/4RkYB6Vk2BeIogvE6/J47vOk8dbGGgIAFk/QK/lws9u91kun+n62e4+4+WzXj/z9bPfZYBkgWZCPq7S918JHgQUd+OcywAAACV0RVh0ZGF0ZTpjcmVhdGUAMjAyMS0wMS0yOVQxNDoxMjoxMSswMDowMDcBk0QAAAAldEVYdGRhdGU6bW9kaWZ5ADIwMjEtMDEtMjlUMTQ6MTI6MTErMDA6MDBGXCv4AAAAAElFTkSuQmCC;" parent="1" vertex="1">
          <mxGeometry x="611.5" y="403.5" width="17" height="17" as="geometry" />
        </mxCell>
        <mxCell id="uiJZJZdM5Mdqh4rs3s2e-42" value="" style="shape=image;verticalLabelPosition=bottom;labelBackgroundColor=default;verticalAlign=top;aspect=fixed;imageAspect=0;image=data:image/svg+xml,PHN2ZyB2ZXJzaW9uPSIxLjEiIHZpZXdCb3g9IjAgMCA2NCA2NCIgaGVpZ2h0PSI2NHB0IiB3aWR0aD0iNjRwdCIgeG1sbnM6eGxpbms9Imh0dHA6Ly93d3cudzMub3JnLzE5OTkveGxpbmsiIHhtbG5zPSJodHRwOi8vd3d3LnczLm9yZy8yMDAwL3N2ZyI+JiN4YTsgICAgPGc+JiN4YTsgICAgICAgIDxwYXRoIGQ9Ik0gNTcuMTI4OTA2IDMyLjQxNzk2OSBDIDU3LjEyODkwNiAxOC43ODkwNjIgNDYuMDc4MTI1IDcuNzQyMTg4IDMyLjQ0OTIxOSA3Ljc0MjE4OCBDIDE4LjgyMDMxMiA3Ljc0MjE4OCA3Ljc2OTUzMSAxOC43ODkwNjIgNy43Njk1MzEgMzIuNDE3OTY5IEMgNy43Njk1MzEgNDYuMDQ2ODc1IDE4LjgyMDMxMiA1Ny4wOTc2NTYgMzIuNDQ5MjE5IDU3LjA5NzY1NiBDIDQ2LjA3ODEyNSA1Ny4wOTc2NTYgNTcuMTI4OTA2IDQ2LjA0Njg3NSA1Ny4xMjg5MDYgMzIuNDE3OTY5IFogTSA1Ny4xMjg5MDYgMzIuNDE3OTY5IiBzdHlsZT0ic3Ryb2tlOm5vbmU7ZmlsbC1ydWxlOm5vbnplcm87ZmlsbDpyZ2IoNS40OTAxOTYlLDE0LjExNzY0NyUsMjEuNTY4NjI3JSk7ZmlsbC1vcGFjaXR5OjE7Ii8+JiN4YTsgICAgICAgIDxwYXRoIGQ9Ik0gNDkuMTQ0NTMxIDE4LjMwMDc4MSBMIDQ2LjM0NzY1NiAyNS4zNzUgTCAzNy41MTk1MzEgMjUuMzc1IEwgMzYuNzA3MDMxIDI5LjY4NzUgTCA0NS4yNzM0MzggMjkuNjg3NSBMIDQyLjQ3NjU2MiAzNi43MjY1NjIgTCAzNS41IDM2Ljc0NjA5NCBMIDMzLjE4MzU5NCA0OC4xMTcxODggTCAxOS40MTQwNjIgNDcuMTg3NSBMIDMzLjUyMzQzOCA0Ni4yNTc4MTIgTCAxOC4wMTE3MTkgNDUuMzI4MTI1IEwgMzMuODYzMjgxIDQ0LjM5MDYyNSBMIDExLjkzMzU5NCA0My40NDkyMTkgTCAzNC4yMzgyODEgNDIuNTIzNDM4IEwgMTYuMTUyMzQ0IDQxLjU4MjAzMSBMIDM0LjU4NTkzOCA0MC42NTYyNSBMIDEzLjIxMDkzOCAzOS43MjY1NjIgTCAzNC45NTcwMzEgMzguNzg1MTU2IEwgMTYuMDU0Njg4IDM3Ljg1OTM3NSBMIDM1LjI5Mjk2OSAzNi45Mjk2ODggTCA5LjM3ODkwNiAzNS45ODgyODEgTCAzNS42NDQ1MzEgMzUuMDYyNSBMIDE2LjE5MTQwNiAzNC4xMzI4MTIgTCAzNi4wMTE3MTkgMzMuMjAzMTI1IEwgMjAuNDk2MDk0IDMyLjI3MzQzOCBMIDM2LjM1MTU2MiAzMS4zNDM3NSBMIDEyLjgzMjAzMSAzMC40MTQwNjIgTCAzNi42ODc1IDI5LjY5OTIxOSBMIDIyLjYyNSAyOC41NTg1OTQgTCAzNy4wNTQ2ODggMjcuNjI4OTA2IEwgMTEuNjkxNDA2IDI2LjY5OTIxOSBMIDM3LjM5NDUzMSAyNS4zNTU0NjkgTCAyMC41OTM3NSAyNC43NzM0MzggTCAzNy43NjE3MTkgMjMuODQzNzUgTCAxNi4wNTQ2ODggMjIuOTE3OTY5IEwgMzguMTAxNTYyIDIxLjk4ODI4MSBMIDE5LjAzNTE1NiAyMS4wNTg1OTQgTCAzOC40Njg3NSAyMC4xMjg5MDYgTCAyMi45NjQ4NDQgMTkuMTkxNDA2IEwgMzMuNTIzNDM4IDE4LjU4OTg0NCBDIDM4LjI5Mjk2OSAxOC4zMjAzMTIgNDcuNTY2NDA2IDE4LjIyMjY1NiA0OS4xNDQ1MzEgMTguMzAwNzgxIFogTSA0OS4xNDQ1MzEgMTguMzAwNzgxIiBzdHlsZT0ic3Ryb2tlOm5vbmU7ZmlsbC1ydWxlOm5vbnplcm87ZmlsbDpyZ2IoMCUsODEuNTY4NjI3JSw0OC4yMzUyOTQlKTtmaWxsLW9wYWNpdHk6MTsiLz4mI3hhOyAgICA8L2c+JiN4YTs8L3N2Zz4=;" parent="1" vertex="1">
          <mxGeometry x="207.5" y="399.5" width="25" height="25" as="geometry" />
        </mxCell>
        <mxCell id="uiJZJZdM5Mdqh4rs3s2e-54" value="" style="shape=image;verticalLabelPosition=bottom;labelBackgroundColor=default;verticalAlign=top;aspect=fixed;imageAspect=0;image=data:image/svg+xml,PHN2ZyB4bWxucz0iaHR0cDovL3d3dy53My5vcmcvMjAwMC9zdmciIHdpZHRoPSIyNCIgdmVyc2lvbj0iMS4xIiBoZWlnaHQ9IjI0IiB2aWV3Qm94PSIwIDAgMjQgMjQiPjxnIHRyYW5zZm9ybT0idHJhbnNsYXRlKDAgLTEwMjguNCkiPjxwYXRoIGZpbGw9IiMyYzNlNTAiIGQ9Im0zIDEwMzAuNGMtMS4xMDQ2IDAtMiAwLjktMiAydjcgMiA3YzAgMS4xIDAuODk1NCAyIDIgMmg5IDljMS4xMDUgMCAyLTAuOSAyLTJ2LTctMi03YzAtMS4xLTAuODk1LTItMi0yaC05LTl6Ii8+PHBhdGggZmlsbD0iIzM0NDk1ZSIgZD0ibTMgMTA0OS40Yy0xLjEwNDYgMC0yLTAuOS0yLTJ2LTctMi0zaDIydjMgMiA3YzAgMS4xLTAuODk1IDItMiAyaC05LTl6Ii8+PHBhdGggZmlsbD0iI2VjZjBmMSIgZD0ibTQgMTAzMi45djEuMWwyIDIuNC0yIDIuM3YxLjFsMy0zLjQtMy0zLjV6Ii8+PHBhdGggdHJhbnNmb3JtPSJ0cmFuc2xhdGUoMCAxMDI4LjQpIiBmaWxsPSIjMzQ0OTVlIiBkPSJtMyAyYy0xLjEwNDYgMC0yIDAuODk1NC0yIDJ2NyAyIDNoMjJ2LTMtMi03YzAtMS4xMDQ2LTAuODk1LTItMi0yaC05LTl6Ii8+PHBhdGggdHJhbnNmb3JtPSJ0cmFuc2xhdGUoMCAxMDI4LjQpIiBmaWxsPSIjZWNmMGYxIiBkPSJtNCA1LjEyNXYxLjEyNWwzIDEuNzUtMyAxLjc1djEuMTI1bDUtMi44NzUtNS0yLjg3NXptNSA0Ljg3NXYxaDV2LTFoLTV6Ii8+PC9nPjwvc3ZnPg==;" parent="1" vertex="1">
          <mxGeometry x="410" y="402" width="20" height="20" as="geometry" />
        </mxCell>
        <mxCell id="uiJZJZdM5Mdqh4rs3s2e-56" value="" style="shape=image;verticalLabelPosition=bottom;labelBackgroundColor=default;verticalAlign=top;imageAspect=0;image=data:image/svg+xml,PHN2ZyBpZD0iZG9ja2VyIiB2aWV3Qm94PSIwIDAgMTI4IDEyOCIgeG1sbnM9Imh0dHA6Ly93d3cudzMub3JnLzIwMDAvc3ZnIj48cGF0aCBjbGlwLXJ1bGU9ImV2ZW5vZGQiIGQ9Ik03My44IDUwLjhoMTEuM3YxMS41aDUuN2MyLjYgMCA1LjMtLjUgNy44LTEuMyAxLjItLjQgMi42LTEgMy44LTEuNy0xLjYtMi4xLTIuNC00LjctMi42LTcuMy0uMy0zLjUuNC04LjEgMi44LTEwLjhsMS4yLTEuNCAxLjQgMS4xYzMuNiAyLjkgNi41IDYuOCA3LjEgMTEuNCA0LjMtMS4zIDkuMy0xIDEzLjEgMS4ybDEuNS45LS44IDEuNmMtMy4yIDYuMi05LjkgOC4yLTE2LjQgNy44LTkuOCAyNC4zLTMxIDM1LjgtNTYuOCAzNS44LTEzLjMgMC0yNS41LTUtMzIuNS0xNi44bC0uMS0uMi0xLTIuMWMtMi40LTUuMi0zLjEtMTAuOS0yLjYtMTYuNmwuMi0xLjdoOS42di0xMS40aDExLjN2LTExLjJoMjIuNXYtMTEuM2gxMy41djIyLjV6IiBmaWxsLXJ1bGU9ImV2ZW5vZGQiIGZpbGw9IiMzQTRENTQiLz48cGF0aCBkPSJNMTEwLjQgNTUuMWMuOC01LjktMy42LTEwLjUtNi40LTEyLjctMy4xIDMuNi0zLjYgMTMuMiAxLjMgMTcuMi0yLjggMi40LTguNSA0LjctMTQuNSA0LjdoLTcyLjJjLS42IDYuMi41IDExLjkgMyAxNi44bC44IDEuNWMuNS45IDEuMSAxLjcgMS43IDIuNiAzIC4yIDUuNy4zIDguMi4yIDQuOS0uMSA4LjktLjcgMTItMS43LjUtLjIuOS4xIDEuMS41LjIuNS0uMS45LS41IDEuMS0uNC4xLS44LjMtMS4zLjQtMi40LjctNSAxLjEtOC4zIDEuM2gtLjYwMDAwMDAwMDAwMDAwMDFjLTEuMy4xLTIuNy4xLTQuMi4xLTEuNiAwLTMuMSAwLTQuOS0uMSA2IDYuOCAxNS40IDEwLjggMjcuMiAxMC44IDI1IDAgNDYuMi0xMS4xIDU1LjUtMzUuOSA2LjcuNyAxMy4xLTEgMTYtNi43LTQuNS0yLjctMTAuNS0xLjgtMTMuOS0uMXoiIGZpbGw9IiMwMEFBREEiLz48cGF0aCBkPSJNMTEwLjQgNTUuMWMuOC01LjktMy42LTEwLjUtNi40LTEyLjctMy4xIDMuNi0zLjYgMTMuMiAxLjMgMTcuMi0yLjggMi40LTguNSA0LjctMTQuNSA0LjdoLTY4Yy0uMyA5LjUgMy4yIDE2LjcgOS41IDIxIDQuOS0uMSA4LjktLjcgMTItMS43LjUtLjIuOS4xIDEuMS41LjIuNS0uMS45LS41IDEuMS0uNC4xLS44LjMtMS4zLjQtMi40LjctNS4yIDEuMi04LjUgMS40bC0uMS0uMWM4LjUgNC40IDIwLjggNC4zIDM1LTEuMSAxNS44LTYuMSAzMC42LTE3LjcgNDAuOS0zMC45LS4yLjEtLjQuMS0uNS4yeiIgZmlsbD0iIzI4QjhFQiIvPjxwYXRoIGQ9Ik0xOC43IDcxLjhjLjQgMy4zIDEuNCA2LjQgMi45IDkuM2wuOCAxLjVjLjUuOSAxLjEgMS43IDEuNyAyLjYgMyAuMiA1LjcuMyA4LjIuMiA0LjktLjEgOC45LS43IDEyLTEuNy41LS4yLjkuMSAxLjEuNS4yLjUtLjEuOS0uNSAxLjEtLjQuMS0uOC4zLTEuMy40LTIuNC43LTUuMiAxLjItOC41IDEuNGgtLjRjLTEuMy4xLTIuNy4xLTQuMS4xLTEuNiAwLTMuMiAwLTQuOS0uMSA2IDYuOCAxNS41IDEwLjggMjcuMyAxMC44IDIxLjQgMCA0MC04LjEgNTAuOC0yNmgtODUuMXYtLjF6IiBmaWxsPSIjMDI4QkI4Ii8+PHBhdGggZD0iTTIzLjUgNzEuOGMxLjMgNS44IDQuMyAxMC40IDguOCAxMy41IDQuOS0uMSA4LjktLjcgMTItMS43LjUtLjIuOS4xIDEuMS41LjIuNS0uMS45LS41IDEuMS0uNC4xLS44LjMtMS4zLjQtMi40LjctNS4yIDEuMi04LjYgMS40IDguNSA0LjQgMjAuOCA0LjMgMzQuOS0xLjEgOC41LTMuMyAxNi44LTguMiAyNC4yLTE0LjFoLTcwLjZ6IiBmaWxsPSIjMDE5QkM2Ii8+PHBhdGggY2xpcC1ydWxlPSJldmVub2RkIiBkPSJNMjguNCA1Mi43aDkuOHY5LjhoLTkuOHYtOS44em0uOC44aC44djguMWgtLjh2LTguMXptMS40IDBoLjh2OC4xaC0uOHYtOC4xem0xLjUgMGguOHY4LjFoLS44di04LjF6bTEuNSAwaC44djguMWgtLjh2LTguMXptMS41IDBoLjh2OC4xaC0uOHYtOC4xem0xLjUgMGguOHY4LjFoLS44di04LjF6TTM5LjYgNDEuNWg5Ljh2OS44aC05Ljh2LTkuOHptLjkuOGguOHY4LjFoLS44di04LjF6bTEuNCAwaC44djguMWgtLjh2LTguMXptMS41IDBoLjh2OC4xaC0uOHYtOC4xem0xLjUgMGguOHY4LjFoLS44di04LjF6bTEuNCAwaC44djguMWgtLjh2LTguMXptMS41IDBoLjh2OC4xaC0uOHYtOC4xeiIgZmlsbC1ydWxlPSJldmVub2RkIiBmaWxsPSIjMDBBQ0QzIi8+PHBhdGggY2xpcC1ydWxlPSJldmVub2RkIiBkPSJNMzkuNiA1Mi43aDkuOHY5LjhoLTkuOHYtOS44em0uOS44aC44djguMWgtLjh2LTguMXptMS40IDBoLjh2OC4xaC0uOHYtOC4xem0xLjUgMGguOHY4LjFoLS44di04LjF6bTEuNSAwaC44djguMWgtLjh2LTguMXptMS40IDBoLjh2OC4xaC0uOHYtOC4xem0xLjUgMGguOHY4LjFoLS44di04LjF6IiBmaWxsLXJ1bGU9ImV2ZW5vZGQiIGZpbGw9IiMyM0MyRUUiLz48cGF0aCBjbGlwLXJ1bGU9ImV2ZW5vZGQiIGQ9Ik01MC45IDUyLjdoOS44djkuOGgtOS44di05Ljh6bS44LjhoLjh2OC4xaC0uOHYtOC4xem0xLjUgMGguOHY4LjFoLS44di04LjF6bTEuNSAwaC44djguMWgtLjh2LTguMXptMS40IDBoLjh2OC4xaC0uOHYtOC4xem0xLjUgMGguOHY4LjFoLS44di04LjF6bTEuNSAwaC44djguMWgtLjh2LTguMXoiIGZpbGwtcnVsZT0iZXZlbm9kZCIgZmlsbD0iIzAwQUNEMyIvPjxwYXRoIGNsaXAtcnVsZT0iZXZlbm9kZCIgZD0iTTUwLjkgNDEuNWg5Ljh2OS44aC05Ljh2LTkuOHptLjguOGguOHY4LjFoLS44di04LjF6bTEuNSAwaC44djguMWgtLjh2LTguMXptMS41IDBoLjh2OC4xaC0uOHYtOC4xem0xLjQgMGguOHY4LjFoLS44di04LjF6bTEuNSAwaC44djguMWgtLjh2LTguMXptMS41IDBoLjh2OC4xaC0uOHYtOC4xek02Mi4yIDUyLjdoOS44djkuOGgtOS44di05Ljh6bS44LjhoLjh2OC4xaC0uOHYtOC4xem0xLjUgMGguOHY4LjFoLS44di04LjF6bTEuNCAwaC44djguMWgtLjh2LTguMXptMS41IDBoLjh2OC4xaC0uOHYtOC4xem0xLjUgMGguOHY4LjFoLS44di04LjF6bTEuNSAwaC44djguMWgtLjh2LTguMXoiIGZpbGwtcnVsZT0iZXZlbm9kZCIgZmlsbD0iIzIzQzJFRSIvPjxwYXRoIGNsaXAtcnVsZT0iZXZlbm9kZCIgZD0iTTYyLjIgNDEuNWg5Ljh2OS44aC05Ljh2LTkuOHptLjguOGguOHY4LjFoLS44di04LjF6bTEuNSAwaC44djguMWgtLjh2LTguMXptMS40IDBoLjh2OC4xaC0uOHYtOC4xem0xLjUgMGguOHY4LjFoLS44di04LjF6bTEuNSAwaC44djguMWgtLjh2LTguMXptMS41IDBoLjh2OC4xaC0uOHYtOC4xeiIgZmlsbC1ydWxlPSJldmVub2RkIiBmaWxsPSIjMDBBQ0QzIi8+PHBhdGggY2xpcC1ydWxlPSJldmVub2RkIiBkPSJNNjIuMiAzMC4yaDkuOHY5LjhoLTkuOHYtOS44em0uOC44aC44djguMWgtLjh2LTguMXptMS41IDBoLjh2OC4xaC0uOHYtOC4xem0xLjQgMGguOHY4LjFoLS44di04LjF6bTEuNSAwaC44djguMWgtLjh2LTguMXptMS41IDBoLjh2OC4xaC0uOHYtOC4xem0xLjUgMGguOHY4LjFoLS44di04LjF6IiBmaWxsLXJ1bGU9ImV2ZW5vZGQiIGZpbGw9IiMyM0MyRUUiLz48cGF0aCBjbGlwLXJ1bGU9ImV2ZW5vZGQiIGQ9Ik03My41IDUyLjdoOS44djkuOGgtOS44di05Ljh6bS44LjhoLjh2OC4xaC0uOHYtOC4xem0xLjQgMGguOHY4LjFoLS44di04LjF6bTEuNSAwaC44djguMWgtLjh2LTguMXptMS41IDBoLjh2OC4xaC0uOHYtOC4xem0xLjUgMGguOHY4LjFoLS44di04LjF6bTEuNSAwaC44djguMWgtLjh2LTguMXoiIGZpbGwtcnVsZT0iZXZlbm9kZCIgZmlsbD0iIzAwQUNEMyIvPjxwYXRoIGNsaXAtcnVsZT0iZXZlbm9kZCIgZD0iTTQ4LjggNzguM2MxLjUgMCAyLjcgMS4yIDIuNyAyLjcgMCAxLjUtMS4yIDIuNy0yLjcgMi43LTEuNSAwLTIuNy0xLjItMi43LTIuNyAwLTEuNSAxLjItMi43IDIuNy0yLjciIGZpbGwtcnVsZT0iZXZlbm9kZCIgZmlsbD0iI0Q0RUVGMSIvPjxwYXRoIGNsaXAtcnVsZT0iZXZlbm9kZCIgZD0iTTQ4LjggNzkuMWMuMiAwIC41IDAgLjcuMS0uMi4xLS40LjQtLjQuNyAwIC40LjQuOC44LjguMyAwIC42LS4yLjctLjQuMS4yLjEuNS4xLjcgMCAxLjEtLjkgMS45LTEuOSAxLjktMS4xIDAtMS45LS45LTEuOS0xLjkgMC0xIC44LTEuOSAxLjktMS45TTEuMSA3Mi44aDEyNS40Yy0yLjctLjctOC42LTEuNi03LjctNS4yLTUgNS43LTE2LjkgNC0yMCAxLjItMy40IDQuOS0yMyAzLTI0LjMtLjgtNC4yIDUtMTcuMyA1LTIxLjUgMC0xLjQgMy44LTIxIDUuNy0yNC4zLjgtMyAyLjgtMTUgNC41LTIwLTEuMiAxLjEgMy41LTQuOSA0LjUtNy42IDUuMiIgZmlsbC1ydWxlPSJldmVub2RkIiBmaWxsPSIjM0E0RDU0Ii8+PHBhdGggZD0iTTU2IDk3LjhjLTYuNy0zLjItMTAuMy03LjUtMTIuNC0xMi4yLTIuNS43LTUuNSAxLjItOC45IDEuNC0xLjMuMS0yLjcuMS00LjEuMS0xLjcgMC0zLjQgMC01LjItLjEgNiA2IDEzLjYgMTAuNyAyNy41IDEwLjhoMy4xeiIgZmlsbD0iI0JGREJFMCIvPjxwYXRoIGQ9Ik00Ni4xIDg5LjljLS45LTEuMy0xLjgtMi44LTIuNS00LjMtMi41LjctNS41IDEuMi04LjkgMS40IDIuMyAxLjIgNS43IDIuNCAxMS40IDIuOXoiIGZpbGw9IiNENEVFRjEiLz48L3N2Zz4=;aspect=fixed;" parent="1" vertex="1">
          <mxGeometry x="204" y="461.3" width="32" height="32" as="geometry" />
        </mxCell>
        <mxCell id="uiJZJZdM5Mdqh4rs3s2e-62" value="" style="shape=image;verticalLabelPosition=bottom;labelBackgroundColor=default;verticalAlign=top;imageAspect=0;image=data:image/svg+xml,PHN2ZyBpZD0iZG9ja2VyIiB2aWV3Qm94PSIwIDAgMTI4IDEyOCIgeG1sbnM9Imh0dHA6Ly93d3cudzMub3JnLzIwMDAvc3ZnIj48cGF0aCBjbGlwLXJ1bGU9ImV2ZW5vZGQiIGQ9Ik03My44IDUwLjhoMTEuM3YxMS41aDUuN2MyLjYgMCA1LjMtLjUgNy44LTEuMyAxLjItLjQgMi42LTEgMy44LTEuNy0xLjYtMi4xLTIuNC00LjctMi42LTcuMy0uMy0zLjUuNC04LjEgMi44LTEwLjhsMS4yLTEuNCAxLjQgMS4xYzMuNiAyLjkgNi41IDYuOCA3LjEgMTEuNCA0LjMtMS4zIDkuMy0xIDEzLjEgMS4ybDEuNS45LS44IDEuNmMtMy4yIDYuMi05LjkgOC4yLTE2LjQgNy44LTkuOCAyNC4zLTMxIDM1LjgtNTYuOCAzNS44LTEzLjMgMC0yNS41LTUtMzIuNS0xNi44bC0uMS0uMi0xLTIuMWMtMi40LTUuMi0zLjEtMTAuOS0yLjYtMTYuNmwuMi0xLjdoOS42di0xMS40aDExLjN2LTExLjJoMjIuNXYtMTEuM2gxMy41djIyLjV6IiBmaWxsLXJ1bGU9ImV2ZW5vZGQiIGZpbGw9IiMzQTRENTQiLz48cGF0aCBkPSJNMTEwLjQgNTUuMWMuOC01LjktMy42LTEwLjUtNi40LTEyLjctMy4xIDMuNi0zLjYgMTMuMiAxLjMgMTcuMi0yLjggMi40LTguNSA0LjctMTQuNSA0LjdoLTcyLjJjLS42IDYuMi41IDExLjkgMyAxNi44bC44IDEuNWMuNS45IDEuMSAxLjcgMS43IDIuNiAzIC4yIDUuNy4zIDguMi4yIDQuOS0uMSA4LjktLjcgMTItMS43LjUtLjIuOS4xIDEuMS41LjIuNS0uMS45LS41IDEuMS0uNC4xLS44LjMtMS4zLjQtMi40LjctNSAxLjEtOC4zIDEuM2gtLjYwMDAwMDAwMDAwMDAwMDFjLTEuMy4xLTIuNy4xLTQuMi4xLTEuNiAwLTMuMSAwLTQuOS0uMSA2IDYuOCAxNS40IDEwLjggMjcuMiAxMC44IDI1IDAgNDYuMi0xMS4xIDU1LjUtMzUuOSA2LjcuNyAxMy4xLTEgMTYtNi43LTQuNS0yLjctMTAuNS0xLjgtMTMuOS0uMXoiIGZpbGw9IiMwMEFBREEiLz48cGF0aCBkPSJNMTEwLjQgNTUuMWMuOC01LjktMy42LTEwLjUtNi40LTEyLjctMy4xIDMuNi0zLjYgMTMuMiAxLjMgMTcuMi0yLjggMi40LTguNSA0LjctMTQuNSA0LjdoLTY4Yy0uMyA5LjUgMy4yIDE2LjcgOS41IDIxIDQuOS0uMSA4LjktLjcgMTItMS43LjUtLjIuOS4xIDEuMS41LjIuNS0uMS45LS41IDEuMS0uNC4xLS44LjMtMS4zLjQtMi40LjctNS4yIDEuMi04LjUgMS40bC0uMS0uMWM4LjUgNC40IDIwLjggNC4zIDM1LTEuMSAxNS44LTYuMSAzMC42LTE3LjcgNDAuOS0zMC45LS4yLjEtLjQuMS0uNS4yeiIgZmlsbD0iIzI4QjhFQiIvPjxwYXRoIGQ9Ik0xOC43IDcxLjhjLjQgMy4zIDEuNCA2LjQgMi45IDkuM2wuOCAxLjVjLjUuOSAxLjEgMS43IDEuNyAyLjYgMyAuMiA1LjcuMyA4LjIuMiA0LjktLjEgOC45LS43IDEyLTEuNy41LS4yLjkuMSAxLjEuNS4yLjUtLjEuOS0uNSAxLjEtLjQuMS0uOC4zLTEuMy40LTIuNC43LTUuMiAxLjItOC41IDEuNGgtLjRjLTEuMy4xLTIuNy4xLTQuMS4xLTEuNiAwLTMuMiAwLTQuOS0uMSA2IDYuOCAxNS41IDEwLjggMjcuMyAxMC44IDIxLjQgMCA0MC04LjEgNTAuOC0yNmgtODUuMXYtLjF6IiBmaWxsPSIjMDI4QkI4Ii8+PHBhdGggZD0iTTIzLjUgNzEuOGMxLjMgNS44IDQuMyAxMC40IDguOCAxMy41IDQuOS0uMSA4LjktLjcgMTItMS43LjUtLjIuOS4xIDEuMS41LjIuNS0uMS45LS41IDEuMS0uNC4xLS44LjMtMS4zLjQtMi40LjctNS4yIDEuMi04LjYgMS40IDguNSA0LjQgMjAuOCA0LjMgMzQuOS0xLjEgOC41LTMuMyAxNi44LTguMiAyNC4yLTE0LjFoLTcwLjZ6IiBmaWxsPSIjMDE5QkM2Ii8+PHBhdGggY2xpcC1ydWxlPSJldmVub2RkIiBkPSJNMjguNCA1Mi43aDkuOHY5LjhoLTkuOHYtOS44em0uOC44aC44djguMWgtLjh2LTguMXptMS40IDBoLjh2OC4xaC0uOHYtOC4xem0xLjUgMGguOHY4LjFoLS44di04LjF6bTEuNSAwaC44djguMWgtLjh2LTguMXptMS41IDBoLjh2OC4xaC0uOHYtOC4xem0xLjUgMGguOHY4LjFoLS44di04LjF6TTM5LjYgNDEuNWg5Ljh2OS44aC05Ljh2LTkuOHptLjkuOGguOHY4LjFoLS44di04LjF6bTEuNCAwaC44djguMWgtLjh2LTguMXptMS41IDBoLjh2OC4xaC0uOHYtOC4xem0xLjUgMGguOHY4LjFoLS44di04LjF6bTEuNCAwaC44djguMWgtLjh2LTguMXptMS41IDBoLjh2OC4xaC0uOHYtOC4xeiIgZmlsbC1ydWxlPSJldmVub2RkIiBmaWxsPSIjMDBBQ0QzIi8+PHBhdGggY2xpcC1ydWxlPSJldmVub2RkIiBkPSJNMzkuNiA1Mi43aDkuOHY5LjhoLTkuOHYtOS44em0uOS44aC44djguMWgtLjh2LTguMXptMS40IDBoLjh2OC4xaC0uOHYtOC4xem0xLjUgMGguOHY4LjFoLS44di04LjF6bTEuNSAwaC44djguMWgtLjh2LTguMXptMS40IDBoLjh2OC4xaC0uOHYtOC4xem0xLjUgMGguOHY4LjFoLS44di04LjF6IiBmaWxsLXJ1bGU9ImV2ZW5vZGQiIGZpbGw9IiMyM0MyRUUiLz48cGF0aCBjbGlwLXJ1bGU9ImV2ZW5vZGQiIGQ9Ik01MC45IDUyLjdoOS44djkuOGgtOS44di05Ljh6bS44LjhoLjh2OC4xaC0uOHYtOC4xem0xLjUgMGguOHY4LjFoLS44di04LjF6bTEuNSAwaC44djguMWgtLjh2LTguMXptMS40IDBoLjh2OC4xaC0uOHYtOC4xem0xLjUgMGguOHY4LjFoLS44di04LjF6bTEuNSAwaC44djguMWgtLjh2LTguMXoiIGZpbGwtcnVsZT0iZXZlbm9kZCIgZmlsbD0iIzAwQUNEMyIvPjxwYXRoIGNsaXAtcnVsZT0iZXZlbm9kZCIgZD0iTTUwLjkgNDEuNWg5Ljh2OS44aC05Ljh2LTkuOHptLjguOGguOHY4LjFoLS44di04LjF6bTEuNSAwaC44djguMWgtLjh2LTguMXptMS41IDBoLjh2OC4xaC0uOHYtOC4xem0xLjQgMGguOHY4LjFoLS44di04LjF6bTEuNSAwaC44djguMWgtLjh2LTguMXptMS41IDBoLjh2OC4xaC0uOHYtOC4xek02Mi4yIDUyLjdoOS44djkuOGgtOS44di05Ljh6bS44LjhoLjh2OC4xaC0uOHYtOC4xem0xLjUgMGguOHY4LjFoLS44di04LjF6bTEuNCAwaC44djguMWgtLjh2LTguMXptMS41IDBoLjh2OC4xaC0uOHYtOC4xem0xLjUgMGguOHY4LjFoLS44di04LjF6bTEuNSAwaC44djguMWgtLjh2LTguMXoiIGZpbGwtcnVsZT0iZXZlbm9kZCIgZmlsbD0iIzIzQzJFRSIvPjxwYXRoIGNsaXAtcnVsZT0iZXZlbm9kZCIgZD0iTTYyLjIgNDEuNWg5Ljh2OS44aC05Ljh2LTkuOHptLjguOGguOHY4LjFoLS44di04LjF6bTEuNSAwaC44djguMWgtLjh2LTguMXptMS40IDBoLjh2OC4xaC0uOHYtOC4xem0xLjUgMGguOHY4LjFoLS44di04LjF6bTEuNSAwaC44djguMWgtLjh2LTguMXptMS41IDBoLjh2OC4xaC0uOHYtOC4xeiIgZmlsbC1ydWxlPSJldmVub2RkIiBmaWxsPSIjMDBBQ0QzIi8+PHBhdGggY2xpcC1ydWxlPSJldmVub2RkIiBkPSJNNjIuMiAzMC4yaDkuOHY5LjhoLTkuOHYtOS44em0uOC44aC44djguMWgtLjh2LTguMXptMS41IDBoLjh2OC4xaC0uOHYtOC4xem0xLjQgMGguOHY4LjFoLS44di04LjF6bTEuNSAwaC44djguMWgtLjh2LTguMXptMS41IDBoLjh2OC4xaC0uOHYtOC4xem0xLjUgMGguOHY4LjFoLS44di04LjF6IiBmaWxsLXJ1bGU9ImV2ZW5vZGQiIGZpbGw9IiMyM0MyRUUiLz48cGF0aCBjbGlwLXJ1bGU9ImV2ZW5vZGQiIGQ9Ik03My41IDUyLjdoOS44djkuOGgtOS44di05Ljh6bS44LjhoLjh2OC4xaC0uOHYtOC4xem0xLjQgMGguOHY4LjFoLS44di04LjF6bTEuNSAwaC44djguMWgtLjh2LTguMXptMS41IDBoLjh2OC4xaC0uOHYtOC4xem0xLjUgMGguOHY4LjFoLS44di04LjF6bTEuNSAwaC44djguMWgtLjh2LTguMXoiIGZpbGwtcnVsZT0iZXZlbm9kZCIgZmlsbD0iIzAwQUNEMyIvPjxwYXRoIGNsaXAtcnVsZT0iZXZlbm9kZCIgZD0iTTQ4LjggNzguM2MxLjUgMCAyLjcgMS4yIDIuNyAyLjcgMCAxLjUtMS4yIDIuNy0yLjcgMi43LTEuNSAwLTIuNy0xLjItMi43LTIuNyAwLTEuNSAxLjItMi43IDIuNy0yLjciIGZpbGwtcnVsZT0iZXZlbm9kZCIgZmlsbD0iI0Q0RUVGMSIvPjxwYXRoIGNsaXAtcnVsZT0iZXZlbm9kZCIgZD0iTTQ4LjggNzkuMWMuMiAwIC41IDAgLjcuMS0uMi4xLS40LjQtLjQuNyAwIC40LjQuOC44LjguMyAwIC42LS4yLjctLjQuMS4yLjEuNS4xLjcgMCAxLjEtLjkgMS45LTEuOSAxLjktMS4xIDAtMS45LS45LTEuOS0xLjkgMC0xIC44LTEuOSAxLjktMS45TTEuMSA3Mi44aDEyNS40Yy0yLjctLjctOC42LTEuNi03LjctNS4yLTUgNS43LTE2LjkgNC0yMCAxLjItMy40IDQuOS0yMyAzLTI0LjMtLjgtNC4yIDUtMTcuMyA1LTIxLjUgMC0xLjQgMy44LTIxIDUuNy0yNC4zLjgtMyAyLjgtMTUgNC41LTIwLTEuMiAxLjEgMy41LTQuOSA0LjUtNy42IDUuMiIgZmlsbC1ydWxlPSJldmVub2RkIiBmaWxsPSIjM0E0RDU0Ii8+PHBhdGggZD0iTTU2IDk3LjhjLTYuNy0zLjItMTAuMy03LjUtMTIuNC0xMi4yLTIuNS43LTUuNSAxLjItOC45IDEuNC0xLjMuMS0yLjcuMS00LjEuMS0xLjcgMC0zLjQgMC01LjItLjEgNiA2IDEzLjYgMTAuNyAyNy41IDEwLjhoMy4xeiIgZmlsbD0iI0JGREJFMCIvPjxwYXRoIGQ9Ik00Ni4xIDg5LjljLS45LTEuMy0xLjgtMi44LTIuNS00LjMtMi41LjctNS41IDEuMi04LjkgMS40IDIuMyAxLjIgNS43IDIuNCAxMS40IDIuOXoiIGZpbGw9IiNENEVFRjEiLz48L3N2Zz4=;aspect=fixed;" parent="1" vertex="1">
          <mxGeometry x="404" y="461.3" width="32" height="32" as="geometry" />
        </mxCell>
        <mxCell id="uiJZJZdM5Mdqh4rs3s2e-63" value="" style="shape=image;verticalLabelPosition=bottom;labelBackgroundColor=default;verticalAlign=top;imageAspect=0;image=data:image/svg+xml,PHN2ZyBpZD0iZG9ja2VyIiB2aWV3Qm94PSIwIDAgMTI4IDEyOCIgeG1sbnM9Imh0dHA6Ly93d3cudzMub3JnLzIwMDAvc3ZnIj48cGF0aCBjbGlwLXJ1bGU9ImV2ZW5vZGQiIGQ9Ik03My44IDUwLjhoMTEuM3YxMS41aDUuN2MyLjYgMCA1LjMtLjUgNy44LTEuMyAxLjItLjQgMi42LTEgMy44LTEuNy0xLjYtMi4xLTIuNC00LjctMi42LTcuMy0uMy0zLjUuNC04LjEgMi44LTEwLjhsMS4yLTEuNCAxLjQgMS4xYzMuNiAyLjkgNi41IDYuOCA3LjEgMTEuNCA0LjMtMS4zIDkuMy0xIDEzLjEgMS4ybDEuNS45LS44IDEuNmMtMy4yIDYuMi05LjkgOC4yLTE2LjQgNy44LTkuOCAyNC4zLTMxIDM1LjgtNTYuOCAzNS44LTEzLjMgMC0yNS41LTUtMzIuNS0xNi44bC0uMS0uMi0xLTIuMWMtMi40LTUuMi0zLjEtMTAuOS0yLjYtMTYuNmwuMi0xLjdoOS42di0xMS40aDExLjN2LTExLjJoMjIuNXYtMTEuM2gxMy41djIyLjV6IiBmaWxsLXJ1bGU9ImV2ZW5vZGQiIGZpbGw9IiMzQTRENTQiLz48cGF0aCBkPSJNMTEwLjQgNTUuMWMuOC01LjktMy42LTEwLjUtNi40LTEyLjctMy4xIDMuNi0zLjYgMTMuMiAxLjMgMTcuMi0yLjggMi40LTguNSA0LjctMTQuNSA0LjdoLTcyLjJjLS42IDYuMi41IDExLjkgMyAxNi44bC44IDEuNWMuNS45IDEuMSAxLjcgMS43IDIuNiAzIC4yIDUuNy4zIDguMi4yIDQuOS0uMSA4LjktLjcgMTItMS43LjUtLjIuOS4xIDEuMS41LjIuNS0uMS45LS41IDEuMS0uNC4xLS44LjMtMS4zLjQtMi40LjctNSAxLjEtOC4zIDEuM2gtLjYwMDAwMDAwMDAwMDAwMDFjLTEuMy4xLTIuNy4xLTQuMi4xLTEuNiAwLTMuMSAwLTQuOS0uMSA2IDYuOCAxNS40IDEwLjggMjcuMiAxMC44IDI1IDAgNDYuMi0xMS4xIDU1LjUtMzUuOSA2LjcuNyAxMy4xLTEgMTYtNi43LTQuNS0yLjctMTAuNS0xLjgtMTMuOS0uMXoiIGZpbGw9IiMwMEFBREEiLz48cGF0aCBkPSJNMTEwLjQgNTUuMWMuOC01LjktMy42LTEwLjUtNi40LTEyLjctMy4xIDMuNi0zLjYgMTMuMiAxLjMgMTcuMi0yLjggMi40LTguNSA0LjctMTQuNSA0LjdoLTY4Yy0uMyA5LjUgMy4yIDE2LjcgOS41IDIxIDQuOS0uMSA4LjktLjcgMTItMS43LjUtLjIuOS4xIDEuMS41LjIuNS0uMS45LS41IDEuMS0uNC4xLS44LjMtMS4zLjQtMi40LjctNS4yIDEuMi04LjUgMS40bC0uMS0uMWM4LjUgNC40IDIwLjggNC4zIDM1LTEuMSAxNS44LTYuMSAzMC42LTE3LjcgNDAuOS0zMC45LS4yLjEtLjQuMS0uNS4yeiIgZmlsbD0iIzI4QjhFQiIvPjxwYXRoIGQ9Ik0xOC43IDcxLjhjLjQgMy4zIDEuNCA2LjQgMi45IDkuM2wuOCAxLjVjLjUuOSAxLjEgMS43IDEuNyAyLjYgMyAuMiA1LjcuMyA4LjIuMiA0LjktLjEgOC45LS43IDEyLTEuNy41LS4yLjkuMSAxLjEuNS4yLjUtLjEuOS0uNSAxLjEtLjQuMS0uOC4zLTEuMy40LTIuNC43LTUuMiAxLjItOC41IDEuNGgtLjRjLTEuMy4xLTIuNy4xLTQuMS4xLTEuNiAwLTMuMiAwLTQuOS0uMSA2IDYuOCAxNS41IDEwLjggMjcuMyAxMC44IDIxLjQgMCA0MC04LjEgNTAuOC0yNmgtODUuMXYtLjF6IiBmaWxsPSIjMDI4QkI4Ii8+PHBhdGggZD0iTTIzLjUgNzEuOGMxLjMgNS44IDQuMyAxMC40IDguOCAxMy41IDQuOS0uMSA4LjktLjcgMTItMS43LjUtLjIuOS4xIDEuMS41LjIuNS0uMS45LS41IDEuMS0uNC4xLS44LjMtMS4zLjQtMi40LjctNS4yIDEuMi04LjYgMS40IDguNSA0LjQgMjAuOCA0LjMgMzQuOS0xLjEgOC41LTMuMyAxNi44LTguMiAyNC4yLTE0LjFoLTcwLjZ6IiBmaWxsPSIjMDE5QkM2Ii8+PHBhdGggY2xpcC1ydWxlPSJldmVub2RkIiBkPSJNMjguNCA1Mi43aDkuOHY5LjhoLTkuOHYtOS44em0uOC44aC44djguMWgtLjh2LTguMXptMS40IDBoLjh2OC4xaC0uOHYtOC4xem0xLjUgMGguOHY4LjFoLS44di04LjF6bTEuNSAwaC44djguMWgtLjh2LTguMXptMS41IDBoLjh2OC4xaC0uOHYtOC4xem0xLjUgMGguOHY4LjFoLS44di04LjF6TTM5LjYgNDEuNWg5Ljh2OS44aC05Ljh2LTkuOHptLjkuOGguOHY4LjFoLS44di04LjF6bTEuNCAwaC44djguMWgtLjh2LTguMXptMS41IDBoLjh2OC4xaC0uOHYtOC4xem0xLjUgMGguOHY4LjFoLS44di04LjF6bTEuNCAwaC44djguMWgtLjh2LTguMXptMS41IDBoLjh2OC4xaC0uOHYtOC4xeiIgZmlsbC1ydWxlPSJldmVub2RkIiBmaWxsPSIjMDBBQ0QzIi8+PHBhdGggY2xpcC1ydWxlPSJldmVub2RkIiBkPSJNMzkuNiA1Mi43aDkuOHY5LjhoLTkuOHYtOS44em0uOS44aC44djguMWgtLjh2LTguMXptMS40IDBoLjh2OC4xaC0uOHYtOC4xem0xLjUgMGguOHY4LjFoLS44di04LjF6bTEuNSAwaC44djguMWgtLjh2LTguMXptMS40IDBoLjh2OC4xaC0uOHYtOC4xem0xLjUgMGguOHY4LjFoLS44di04LjF6IiBmaWxsLXJ1bGU9ImV2ZW5vZGQiIGZpbGw9IiMyM0MyRUUiLz48cGF0aCBjbGlwLXJ1bGU9ImV2ZW5vZGQiIGQ9Ik01MC45IDUyLjdoOS44djkuOGgtOS44di05Ljh6bS44LjhoLjh2OC4xaC0uOHYtOC4xem0xLjUgMGguOHY4LjFoLS44di04LjF6bTEuNSAwaC44djguMWgtLjh2LTguMXptMS40IDBoLjh2OC4xaC0uOHYtOC4xem0xLjUgMGguOHY4LjFoLS44di04LjF6bTEuNSAwaC44djguMWgtLjh2LTguMXoiIGZpbGwtcnVsZT0iZXZlbm9kZCIgZmlsbD0iIzAwQUNEMyIvPjxwYXRoIGNsaXAtcnVsZT0iZXZlbm9kZCIgZD0iTTUwLjkgNDEuNWg5Ljh2OS44aC05Ljh2LTkuOHptLjguOGguOHY4LjFoLS44di04LjF6bTEuNSAwaC44djguMWgtLjh2LTguMXptMS41IDBoLjh2OC4xaC0uOHYtOC4xem0xLjQgMGguOHY4LjFoLS44di04LjF6bTEuNSAwaC44djguMWgtLjh2LTguMXptMS41IDBoLjh2OC4xaC0uOHYtOC4xek02Mi4yIDUyLjdoOS44djkuOGgtOS44di05Ljh6bS44LjhoLjh2OC4xaC0uOHYtOC4xem0xLjUgMGguOHY4LjFoLS44di04LjF6bTEuNCAwaC44djguMWgtLjh2LTguMXptMS41IDBoLjh2OC4xaC0uOHYtOC4xem0xLjUgMGguOHY4LjFoLS44di04LjF6bTEuNSAwaC44djguMWgtLjh2LTguMXoiIGZpbGwtcnVsZT0iZXZlbm9kZCIgZmlsbD0iIzIzQzJFRSIvPjxwYXRoIGNsaXAtcnVsZT0iZXZlbm9kZCIgZD0iTTYyLjIgNDEuNWg5Ljh2OS44aC05Ljh2LTkuOHptLjguOGguOHY4LjFoLS44di04LjF6bTEuNSAwaC44djguMWgtLjh2LTguMXptMS40IDBoLjh2OC4xaC0uOHYtOC4xem0xLjUgMGguOHY4LjFoLS44di04LjF6bTEuNSAwaC44djguMWgtLjh2LTguMXptMS41IDBoLjh2OC4xaC0uOHYtOC4xeiIgZmlsbC1ydWxlPSJldmVub2RkIiBmaWxsPSIjMDBBQ0QzIi8+PHBhdGggY2xpcC1ydWxlPSJldmVub2RkIiBkPSJNNjIuMiAzMC4yaDkuOHY5LjhoLTkuOHYtOS44em0uOC44aC44djguMWgtLjh2LTguMXptMS41IDBoLjh2OC4xaC0uOHYtOC4xem0xLjQgMGguOHY4LjFoLS44di04LjF6bTEuNSAwaC44djguMWgtLjh2LTguMXptMS41IDBoLjh2OC4xaC0uOHYtOC4xem0xLjUgMGguOHY4LjFoLS44di04LjF6IiBmaWxsLXJ1bGU9ImV2ZW5vZGQiIGZpbGw9IiMyM0MyRUUiLz48cGF0aCBjbGlwLXJ1bGU9ImV2ZW5vZGQiIGQ9Ik03My41IDUyLjdoOS44djkuOGgtOS44di05Ljh6bS44LjhoLjh2OC4xaC0uOHYtOC4xem0xLjQgMGguOHY4LjFoLS44di04LjF6bTEuNSAwaC44djguMWgtLjh2LTguMXptMS41IDBoLjh2OC4xaC0uOHYtOC4xem0xLjUgMGguOHY4LjFoLS44di04LjF6bTEuNSAwaC44djguMWgtLjh2LTguMXoiIGZpbGwtcnVsZT0iZXZlbm9kZCIgZmlsbD0iIzAwQUNEMyIvPjxwYXRoIGNsaXAtcnVsZT0iZXZlbm9kZCIgZD0iTTQ4LjggNzguM2MxLjUgMCAyLjcgMS4yIDIuNyAyLjcgMCAxLjUtMS4yIDIuNy0yLjcgMi43LTEuNSAwLTIuNy0xLjItMi43LTIuNyAwLTEuNSAxLjItMi43IDIuNy0yLjciIGZpbGwtcnVsZT0iZXZlbm9kZCIgZmlsbD0iI0Q0RUVGMSIvPjxwYXRoIGNsaXAtcnVsZT0iZXZlbm9kZCIgZD0iTTQ4LjggNzkuMWMuMiAwIC41IDAgLjcuMS0uMi4xLS40LjQtLjQuNyAwIC40LjQuOC44LjguMyAwIC42LS4yLjctLjQuMS4yLjEuNS4xLjcgMCAxLjEtLjkgMS45LTEuOSAxLjktMS4xIDAtMS45LS45LTEuOS0xLjkgMC0xIC44LTEuOSAxLjktMS45TTEuMSA3Mi44aDEyNS40Yy0yLjctLjctOC42LTEuNi03LjctNS4yLTUgNS43LTE2LjkgNC0yMCAxLjItMy40IDQuOS0yMyAzLTI0LjMtLjgtNC4yIDUtMTcuMyA1LTIxLjUgMC0xLjQgMy44LTIxIDUuNy0yNC4zLjgtMyAyLjgtMTUgNC41LTIwLTEuMiAxLjEgMy41LTQuOSA0LjUtNy42IDUuMiIgZmlsbC1ydWxlPSJldmVub2RkIiBmaWxsPSIjM0E0RDU0Ii8+PHBhdGggZD0iTTU2IDk3LjhjLTYuNy0zLjItMTAuMy03LjUtMTIuNC0xMi4yLTIuNS43LTUuNSAxLjItOC45IDEuNC0xLjMuMS0yLjcuMS00LjEuMS0xLjcgMC0zLjQgMC01LjItLjEgNiA2IDEzLjYgMTAuNyAyNy41IDEwLjhoMy4xeiIgZmlsbD0iI0JGREJFMCIvPjxwYXRoIGQ9Ik00Ni4xIDg5LjljLS45LTEuMy0xLjgtMi44LTIuNS00LjMtMi41LjctNS41IDEuMi04LjkgMS40IDIuMyAxLjIgNS43IDIuNCAxMS40IDIuOXoiIGZpbGw9IiNENEVFRjEiLz48L3N2Zz4=;aspect=fixed;" parent="1" vertex="1">
          <mxGeometry x="604" y="461.3" width="32" height="32" as="geometry" />
        </mxCell>
      </root>
    </mxGraphModel>
  </diagram>
</mxfile>
